<svg width="1281" height="253" viewBox="0 0 1281 253" fill="none" xmlns="http://www.w3.org/2000/svg">
<path d="M1234.51 112.921C1219.2 110.349 1196.54 138.146 1192.62 156.538C1188.74 174.766 1200.64 192.592 1219.15 196.272C1237.66 199.951 1255.88 188.114 1259.76 169.886C1263.68 151.494 1249.81 115.494 1234.51 112.921Z" fill="url(#paint0_linear)"/>
<path fill-rule="evenodd" clip-rule="evenodd" d="M1211.93 129.16C1204.13 137.788 1197.88 148.798 1196.08 157.218C1192.6 173.569 1203.28 189.566 1219.88 192.867C1236.48 196.167 1252.82 185.55 1256.3 169.206C1258.05 160.981 1255.83 148.141 1251.07 136.825C1248.72 131.232 1245.84 126.24 1242.73 122.551C1239.56 118.789 1236.5 116.785 1233.88 116.345C1231.22 115.899 1227.82 116.723 1223.84 119.047C1219.91 121.339 1215.8 124.877 1211.93 129.16ZM1192.62 156.538C1196.54 138.146 1219.2 110.349 1234.51 112.921C1249.81 115.494 1263.68 151.494 1259.76 169.886C1255.88 188.114 1237.66 199.951 1219.15 196.272C1200.64 192.592 1188.74 174.766 1192.62 156.538Z" fill="#2D3433"/>
<path d="M1226.33 183.051C1226.12 184.314 1223.6 184.99 1220.7 184.56C1217.8 184.13 1215.62 182.758 1215.83 181.495C1216.04 180.232 1218.37 181.698 1221.26 182.127C1224.16 182.557 1226.53 181.788 1226.33 183.051Z" fill="#2D3433"/>
<ellipse rx="3.66178" ry="3.57913" transform="matrix(0.943614 -0.331047 0.335082 0.942189 1238.59 168.642)" fill="#2D3433"/>
<ellipse rx="3.71707" ry="3.63318" transform="matrix(0.943614 -0.331047 0.335082 0.942189 1208.77 163.212)" fill="#2D3433"/>
<mask id="mask0" mask-type="alpha" maskUnits="userSpaceOnUse" x="1181" y="108" width="88" height="97">
<path d="M1234.27 112.859C1218.97 110.286 1196.54 138.146 1192.62 156.538C1188.74 174.767 1200.64 192.592 1219.15 196.272C1237.66 199.952 1255.88 188.114 1259.76 169.886C1263.68 151.494 1249.58 115.432 1234.27 112.859Z" fill="url(#paint1_linear)"/>
</mask>
<g mask="url(#mask0)">
<path fill-rule="evenodd" clip-rule="evenodd" d="M1246.14 111.653C1258.31 111.406 1268.84 117.724 1279.68 132.952L1276.97 134.822C1282.94 137.937 1288.17 142.248 1292.27 148.01L1287.37 151.392C1283.86 146.471 1279.34 142.715 1274.06 139.966L1272.81 141.402C1270.88 139.792 1268.95 138.336 1267.04 137.026C1258.5 134.209 1248.6 133.388 1238.17 134.071C1227.87 134.746 1217.27 136.884 1207.36 139.863C1216.25 138.43 1225.53 138.084 1234.57 138.971C1254.2 140.896 1273.18 148.7 1284.39 164.442L1279.49 167.824C1269.58 153.914 1252.48 146.611 1233.91 144.789C1223.96 143.812 1213.72 144.428 1204.17 146.379C1229.21 142.362 1254.95 152.164 1271.74 175.724L1266.83 179.106C1246.57 150.667 1212.52 144.155 1184.19 159.233L1181.38 154.102C1181.4 154.093 1181.42 154.083 1181.44 154.073L1178.74 149.14C1179.11 148.945 1179.48 148.753 1179.85 148.563L1178.14 145.433C1185.05 141.753 1193.28 138.257 1202.15 135.375C1204.63 133.557 1207.14 131.894 1209.69 130.402L1207.29 126.022C1214.7 122.08 1221.5 118.559 1227.84 116.003C1234.18 113.444 1240.23 111.773 1246.14 111.653ZM1225.52 129.659C1228.28 128.805 1231.05 128.202 1233.83 127.865C1237.57 127.412 1241.36 127.436 1245.2 127.999C1242.76 127.993 1240.3 128.076 1237.84 128.237C1233.75 128.505 1229.63 128.99 1225.52 129.659ZM1269.8 131.751C1257.53 123.547 1245.26 120.596 1233.16 122.063C1230.18 122.424 1227.23 123.052 1224.31 123.923C1226.29 123 1228.2 122.156 1230.06 121.405C1236.05 118.986 1241.32 117.598 1246.2 117.499C1254.71 117.326 1262.83 121.09 1271.92 132.532C1271.22 132.258 1270.51 131.998 1269.8 131.751Z" fill="#2D3433"/>
</g>
<path d="M1230.36 129.422C1232.54 125.57 1225.15 109.978 1217.78 105.726C1210.47 101.512 1200.97 103.948 1196.6 111.155C1192.23 118.362 1194.61 127.654 1201.91 131.868C1209.28 136.119 1228.17 133.274 1230.36 129.422Z" fill="url(#paint2_linear)"/>
<path d="M1230.36 129.422C1232.54 125.57 1225.15 109.978 1217.78 105.726C1210.47 101.512 1200.97 103.948 1196.6 111.155C1192.23 118.362 1194.61 127.654 1201.91 131.868C1209.28 136.119 1228.17 133.274 1230.36 129.422Z" fill="url(#paint3_linear)"/>
<path fill-rule="evenodd" clip-rule="evenodd" d="M1224.12 119.486C1221.73 114.775 1218.46 110.637 1215.77 109.084C1210.33 105.947 1203.24 107.765 1199.98 113.131C1196.73 118.482 1198.5 125.381 1203.92 128.51C1205.06 129.167 1206.98 129.705 1209.57 129.952C1212.09 130.192 1214.93 130.128 1217.66 129.822C1220.41 129.515 1222.92 128.98 1224.77 128.352C1225.71 128.036 1226.37 127.731 1226.8 127.48C1226.8 127.479 1226.8 127.479 1226.8 127.478C1226.79 127.057 1226.71 126.439 1226.51 125.622C1226.1 123.914 1225.27 121.754 1224.12 119.486ZM1226.78 127.861C1226.78 127.861 1226.78 127.86 1226.78 127.856C1226.78 127.86 1226.78 127.861 1226.78 127.861ZM1217.78 105.726C1225.15 109.978 1232.54 125.57 1230.36 129.422C1228.17 133.274 1209.28 136.119 1201.91 131.868C1194.61 127.654 1192.23 118.362 1196.6 111.155C1200.97 103.948 1210.47 101.512 1217.78 105.726Z" fill="#2D3433"/>
<path d="M1225.74 130.464C1230.18 134.957 1252.05 131.208 1260.21 123.852C1268.29 116.561 1268.9 104.213 1261.57 96.3288C1254.24 88.4442 1241.71 87.9612 1233.63 95.2521C1225.48 102.608 1221.3 125.97 1225.74 130.464Z" fill="url(#paint4_linear)"/>
<path d="M1225.74 130.464C1230.18 134.957 1252.05 131.208 1260.21 123.852C1268.29 116.561 1268.9 104.213 1261.57 96.3288C1254.24 88.4442 1241.71 87.9612 1233.63 95.2521C1225.48 102.608 1221.3 125.97 1225.74 130.464Z" fill="url(#paint5_linear)"/>
<path fill-rule="evenodd" clip-rule="evenodd" d="M1240.89 127.781C1247.66 126.535 1254.3 123.937 1257.56 120.994C1264.03 115.154 1264.51 105.267 1258.65 98.9663C1252.8 92.6628 1242.75 92.2674 1236.28 98.1099C1234.82 99.4255 1233.3 101.707 1231.94 104.766C1230.6 107.767 1229.53 111.244 1228.83 114.677C1228.12 118.121 1227.8 121.377 1227.89 123.934C1227.94 125.214 1228.08 126.214 1228.28 126.929C1228.42 127.435 1228.54 127.671 1228.59 127.744C1228.66 127.789 1228.88 127.915 1229.34 128.054C1229.99 128.251 1230.92 128.41 1232.12 128.481C1234.51 128.623 1237.58 128.388 1240.89 127.781ZM1260.21 123.852C1252.05 131.208 1230.18 134.957 1225.74 130.464C1221.3 125.97 1225.48 102.608 1233.63 95.2521C1241.71 87.9612 1254.24 88.4442 1261.57 96.3288C1268.9 104.213 1268.29 116.561 1260.21 123.852Z" fill="#2D3433"/>
<path d="M1249.12 82.2688C1255.32 83.6974 1260.97 86.8336 1265.38 91.3101C1269.8 95.7866 1272.81 101.418 1274.06 107.544C1274.06 107.544 1274.3 108.998 1273.11 109.321C1271.92 109.644 1271.36 108.102 1271.36 108.102C1270.21 102.479 1267.45 97.3096 1263.39 93.2006C1259.34 89.0915 1254.16 86.2127 1248.46 84.9014C1248.46 84.9014 1246.88 84.5368 1247.26 83.1899C1247.65 81.8431 1249.12 82.2688 1249.12 82.2688Z" fill="#2D3433"/>
<path d="M1250.34 76.5108C1257.7 78.2057 1264.39 81.9265 1269.63 87.2374C1274.87 92.5483 1278.45 99.2293 1279.93 106.498C1279.93 106.498 1280.21 108.222 1278.8 108.606C1277.39 108.989 1276.72 107.16 1276.72 107.16C1275.36 100.488 1272.08 94.3553 1267.27 89.4803C1262.46 84.6053 1256.31 81.1898 1249.55 79.634C1249.55 79.634 1247.68 79.2015 1248.13 77.6036C1248.59 76.0057 1250.34 76.5108 1250.34 76.5108Z" fill="#2D3433"/>
<path d="M1188.43 125.333C1187.78 120.338 1188.6 115.251 1190.8 110.666C1192.99 106.082 1196.46 102.19 1200.81 99.4475C1200.81 99.4475 1201.86 98.8394 1202.44 99.6193C1203.02 100.399 1202 101.274 1202 101.274C1198.01 103.792 1194.82 107.364 1192.81 111.572C1190.79 115.781 1190.04 120.451 1190.63 125.035C1190.63 125.035 1190.8 126.307 1189.66 126.425C1188.52 126.544 1188.43 125.333 1188.43 125.333Z" fill="#2D3433"/>
<path d="M1183.67 126.149C1182.9 120.224 1183.88 114.188 1186.48 108.749C1189.08 103.31 1193.2 98.6931 1198.36 95.439C1198.36 95.439 1199.6 94.7175 1200.29 95.6428C1200.99 96.568 1199.77 97.6064 1199.77 97.6064C1195.03 100.593 1191.25 104.832 1188.86 109.824C1186.48 114.817 1185.58 120.357 1186.29 125.796C1186.29 125.796 1186.48 127.305 1185.13 127.446C1183.77 127.587 1183.67 126.149 1183.67 126.149Z" fill="#2D3433"/>
<path d="M1177.82 127.82C1176.89 120.621 1178.07 113.287 1181.23 106.679C1184.39 100.07 1189.4 94.4606 1195.67 90.5068C1195.67 90.5068 1197.18 89.6302 1198.02 90.7544C1198.86 91.8786 1197.38 93.1402 1197.38 93.1402C1191.63 96.7695 1187.03 101.919 1184.13 107.985C1181.23 114.051 1180.14 120.783 1181 127.391C1181 127.391 1181.23 129.224 1179.59 129.395C1177.95 129.567 1177.82 127.82 1177.82 127.82Z" fill="#2D3433"/>
<path d="M0 168.962C0 168.962 156.538 -48.1553 299.371 43.6245C370.427 89.2831 359.11 179.536 439.757 206.041C519.119 232.123 533.091 164.38 616.745 160.418C695.73 156.677 738.857 198.774 813.753 174.041C901.249 145.146 854.101 63.153 942.349 36.519C1038.03 7.64015 1218 86.5 1218 86.5" stroke="url(#paint6_linear)" stroke-width="2" stroke-linecap="round" stroke-linejoin="round" stroke-dasharray="10 20"/>
<defs>
<linearGradient id="paint0_linear" x1="1214.57" y1="130.817" x2="1254.34" y2="185.762" gradientUnits="userSpaceOnUse">
<stop stop-color="#FFD000"/>
<stop offset="0.0666667" stop-color="#FFD000"/>
<stop offset="0.133333" stop-color="#FECF00"/>
<stop offset="0.2" stop-color="#FDCD00"/>
<stop offset="0.266667" stop-color="#FCCA00"/>
<stop offset="0.333333" stop-color="#FAC700"/>
<stop offset="0.4" stop-color="#F8C300"/>
<stop offset="0.466667" stop-color="#F6BF00"/>
<stop offset="0.533333" stop-color="#F4BA00"/>
<stop offset="0.6" stop-color="#F1B600"/>
<stop offset="0.666667" stop-color="#EFB200"/>
<stop offset="0.733333" stop-color="#EEAF00"/>
<stop offset="0.8" stop-color="#ECAC00"/>
<stop offset="0.866667" stop-color="#EBAA00"/>
<stop offset="0.933333" stop-color="#EBA900"/>
<stop offset="1" stop-color="#EBA900"/>
</linearGradient>
<linearGradient id="paint1_linear" x1="1230.06" y1="157.198" x2="1202.35" y2="121.162" gradientUnits="userSpaceOnUse">
<stop stop-color="#FFD000"/>
<stop offset="0.0666667" stop-color="#FFD000"/>
<stop offset="0.133333" stop-color="#FECF00"/>
<stop offset="0.2" stop-color="#FDCD00"/>
<stop offset="0.266667" stop-color="#FCCA00"/>
<stop offset="0.333333" stop-color="#FAC700"/>
<stop offset="0.4" stop-color="#F8C300"/>
<stop offset="0.466667" stop-color="#F6BF00"/>
<stop offset="0.533333" stop-color="#F4BA00"/>
<stop offset="0.6" stop-color="#F1B600"/>
<stop offset="0.666667" stop-color="#EFB200"/>
<stop offset="0.733333" stop-color="#EEAF00"/>
<stop offset="0.8" stop-color="#ECAC00"/>
<stop offset="0.866667" stop-color="#EBAA00"/>
<stop offset="0.933333" stop-color="#EBA900"/>
<stop offset="1" stop-color="#EBA900"/>
</linearGradient>
<linearGradient id="paint2_linear" x1="1225.61" y1="118.548" x2="1196" y2="127.812" gradientUnits="userSpaceOnUse">
<stop stop-color="#FFD000"/>
<stop offset="0.0666667" stop-color="#FFD000"/>
<stop offset="0.133333" stop-color="#FECF00"/>
<stop offset="0.2" stop-color="#FDCD00"/>
<stop offset="0.266667" stop-color="#FCCA00"/>
<stop offset="0.333333" stop-color="#FAC700"/>
<stop offset="0.4" stop-color="#F8C300"/>
<stop offset="0.466667" stop-color="#F6BF00"/>
<stop offset="0.533333" stop-color="#F4BA00"/>
<stop offset="0.6" stop-color="#F1B600"/>
<stop offset="0.666667" stop-color="#EFB200"/>
<stop offset="0.733333" stop-color="#EEAF00"/>
<stop offset="0.8" stop-color="#ECAC00"/>
<stop offset="0.866667" stop-color="#EBAA00"/>
<stop offset="0.933333" stop-color="#EBA900"/>
<stop offset="1" stop-color="#EBA900"/>
</linearGradient>
<linearGradient id="paint3_linear" x1="1233.48" y1="118.923" x2="1193.04" y2="123.364" gradientUnits="userSpaceOnUse">
<stop stop-color="#FFF9E2"/>
<stop offset="1" stop-color="#FFEFB5"/>
</linearGradient>
<linearGradient id="paint4_linear" x1="1241.16" y1="128.667" x2="1240.7" y2="89.591" gradientUnits="userSpaceOnUse">
<stop stop-color="#FFD000"/>
<stop offset="0.0666667" stop-color="#FFD000"/>
<stop offset="0.133333" stop-color="#FECF00"/>
<stop offset="0.2" stop-color="#FDCD00"/>
<stop offset="0.266667" stop-color="#FCCA00"/>
<stop offset="0.333333" stop-color="#FAC700"/>
<stop offset="0.4" stop-color="#F8C300"/>
<stop offset="0.466667" stop-color="#F6BF00"/>
<stop offset="0.533333" stop-color="#F4BA00"/>
<stop offset="0.6" stop-color="#F1B600"/>
<stop offset="0.666667" stop-color="#EFB200"/>
<stop offset="0.733333" stop-color="#EEAF00"/>
<stop offset="0.8" stop-color="#ECAC00"/>
<stop offset="0.866667" stop-color="#EBAA00"/>
<stop offset="0.933333" stop-color="#EBA900"/>
<stop offset="1" stop-color="#EBA900"/>
</linearGradient>
<linearGradient id="paint5_linear" x1="1237.66" y1="138.029" x2="1246.63" y2="87.4325" gradientUnits="userSpaceOnUse">
<stop stop-color="#FFF9E2"/>
<stop offset="1" stop-color="#FFEFB5"/>
</linearGradient>
<linearGradient id="paint6_linear" x1="609" y1="21.0007" x2="609" y2="212" gradientUnits="userSpaceOnUse">
<stop stop-color="#4C5756"/>
<stop offset="1" stop-color="#2D3433"/>
</linearGradient>
</defs>
</svg>
