<svg width="672" height="316" viewBox="0 0 672 316" fill="none" xmlns="http://www.w3.org/2000/svg">
<path d="M0 297C0 296.529 0 296.293 0.133712 296.146C0.267424 296 0.482631 296 0.913043 296H466.565C466.996 296 467.211 296 467.345 296.146C467.478 296.293 467.478 296.529 467.478 297C467.478 297.471 467.478 297.707 467.345 297.854C467.211 298 466.996 298 466.565 298H0.913043C0.482631 298 0.267424 298 0.133712 297.854C0 297.707 0 297.471 0 297Z" fill="url(#paint0_linear)"/>
<path d="M204.522 315C204.522 314.529 204.522 314.293 204.655 314.146C204.789 314 205.004 314 205.435 314H671.087C671.517 314 671.733 314 671.866 314.146C672 314.293 672 314.529 672 315C672 315.471 672 315.707 671.866 315.854C671.733 316 671.517 316 671.087 316H205.435C205.004 316 204.789 316 204.655 315.854C204.522 315.707 204.522 315.471 204.522 315Z" fill="url(#paint1_linear)"/>
<path d="M658 229.053C658 243.618 658 250.9 653.528 255.547C649.056 260.193 641.779 260.472 627.225 261.029L165.225 278.727C149.615 279.325 141.81 279.624 136.905 274.904C132 270.183 132 262.372 132 246.751V169.149L624.775 150.273C640.385 149.675 648.19 149.376 653.095 154.096C658 158.817 658 166.628 658 182.249V229.053Z" fill="url(#paint2_linear)"/>
<path d="M149.21 256.174L150.633 256.124L150.277 245.955L154.195 245.818L154.148 244.475L144.874 244.799L144.92 246.142L148.854 246.004L149.21 256.174Z" fill="white"/>
<path d="M159.671 246.939C158.424 246.983 157.449 247.497 156.839 248.367L156.7 244.386L155.421 244.43L155.823 255.943L157.262 255.893L157.103 251.336C157.033 249.337 157.943 248.345 159.366 248.295C161.189 248.231 161.772 249.78 161.828 251.395L161.98 255.728L163.419 255.678L163.252 250.897C163.195 249.266 162.453 246.842 159.671 246.939Z" fill="white"/>
<path d="M166.423 251.651L173.027 251.42C173.064 248.345 171.479 246.511 168.872 246.602C166.362 246.69 164.777 248.522 164.876 251.352C164.97 254.055 166.713 255.803 169.255 255.714C170.934 255.656 172.326 254.727 172.961 253.183L171.569 252.752C171.124 253.76 170.279 254.318 169.144 254.357C167.561 254.413 166.598 253.438 166.423 251.651ZM168.965 247.88C170.436 247.828 171.281 248.631 171.532 250.32L166.415 250.498C166.55 248.861 167.43 247.933 168.965 247.88Z" fill="white"/>
<path d="M179.992 255.099L181.176 255.058L183.041 248.413L185.285 254.914L186.532 254.871L188.869 246.144L187.462 246.193L185.748 252.577L183.592 246.328L182.345 246.372L180.631 252.755L178.475 246.507L177.052 246.541L179.992 255.099Z" fill="white"/>
<path d="M191.221 250.785L197.825 250.554C197.861 247.479 196.276 245.645 193.67 245.736C191.159 245.824 189.574 247.656 189.673 250.487C189.768 253.189 191.51 254.937 194.052 254.848C195.731 254.79 197.124 253.861 197.758 252.317L196.366 251.886C195.921 252.894 195.076 253.452 193.941 253.491C192.358 253.547 191.395 252.572 191.221 250.785ZM193.763 247.014C195.234 246.962 196.078 247.765 196.329 249.454L191.212 249.632C191.347 247.995 192.227 247.067 193.763 247.014Z" fill="white"/>
<path d="M203.421 245.396C202.334 245.434 201.5 245.847 200.898 246.508L200.77 242.847L199.347 242.896L199.75 254.409L201.013 254.365L200.978 253.374C201.629 254.12 202.556 254.551 203.724 254.511C206.138 254.426 207.524 252.393 207.433 249.802C207.343 247.212 205.82 245.312 203.421 245.396ZM203.502 253.206C201.759 253.266 200.928 251.935 200.861 250.032C200.795 248.129 201.547 246.758 203.242 246.699C205.001 246.637 205.867 248.032 205.93 249.855C205.995 251.694 205.213 253.146 203.502 253.206Z" fill="white"/>
<path d="M212.483 254.205C214.642 254.129 215.901 253.061 215.843 251.398C215.796 250.055 215.038 249.441 212.731 248.945C210.683 248.504 210.242 248.247 210.219 247.608C210.193 246.872 210.944 246.366 212.065 246.359C213.233 246.35 214.053 246.898 214.228 247.804L215.675 247.497C215.446 245.984 213.987 245.027 212.021 245.095C210.022 245.165 208.73 246.219 208.783 247.738C208.826 248.969 209.582 249.535 211.89 250.063C214.021 250.565 214.348 250.762 214.373 251.481C214.403 252.329 213.702 252.881 212.534 252.922C211.287 252.966 210.371 252.405 210.098 251.47L208.651 251.761C209.012 253.365 210.42 254.277 212.483 254.205Z" fill="white"/>
<path d="M217.509 243.527L218.932 243.477L218.881 242.006L217.458 242.056L217.509 243.527ZM217.867 253.777L219.29 253.727L218.989 245.092L217.566 245.142L217.867 253.777Z" fill="white"/>
<path d="M223.651 246.098L226.257 246.007L226.217 244.84L223.61 244.931L223.526 242.532L222.103 242.582L222.187 244.98L220.428 245.042L220.469 246.209L222.228 246.148L222.375 250.353C222.406 251.249 222.381 251.906 222.74 252.566C223.389 253.728 224.979 253.848 226.518 253.474L226.475 252.243C225.299 252.476 224.434 252.459 224.026 251.784C223.805 251.424 223.82 250.943 223.796 250.24L223.651 246.098Z" fill="white"/>
<path d="M228.823 249.472L235.427 249.241C235.463 246.166 233.878 244.332 231.272 244.423C228.761 244.511 227.176 246.343 227.275 249.173C227.37 251.876 229.112 253.624 231.654 253.535C233.333 253.477 234.726 252.547 235.36 251.004L233.968 250.573C233.523 251.581 232.678 252.139 231.543 252.178C229.96 252.234 228.997 251.259 228.823 249.472ZM231.365 245.701C232.836 245.649 233.68 246.452 233.931 248.141L228.815 248.319C228.949 246.681 229.83 245.754 231.365 245.701Z" fill="white"/>
<path d="M244.303 253.094C244.895 253.073 245.469 253.005 246.004 252.762C246.574 252.566 247.169 252.193 247.584 251.698L248.84 252.807L249.733 251.783L248.214 250.475C248.298 250.136 248.344 249.606 248.317 248.839L248.251 246.968L246.94 247.014L247.012 248.612C247.021 248.868 247.015 249.157 246.992 249.413L243.492 246.382C243.179 246.121 242.882 245.875 242.65 245.643C242.267 245.224 242.032 244.912 242.01 244.288C241.985 243.585 242.271 243.062 242.852 242.738C243.183 242.566 243.564 242.473 243.979 242.458C244.475 242.441 244.991 242.535 245.385 242.826C245.615 242.994 245.799 243.227 245.921 243.495L247.3 243.095C247.123 242.621 246.803 242.168 246.391 241.846C245.764 241.291 244.844 241.083 243.932 241.115C243.373 241.135 242.8 241.235 242.264 241.478C241.161 241.996 240.512 243.108 240.555 244.339C240.59 245.33 241.01 245.908 241.773 246.666C241.427 246.854 241.068 247.107 240.808 247.452C240.302 248.094 240.092 248.95 240.121 249.782C240.183 250.66 240.483 251.434 241.08 252.037C241.86 252.811 243.024 253.138 244.303 253.094ZM244.287 251.717C243.503 251.745 242.6 251.552 242.117 251.009C241.801 250.667 241.609 250.21 241.574 249.667C241.556 249.155 241.667 248.687 241.943 248.325C242.173 248.029 242.501 247.793 242.896 247.651L246.51 250.743C246.341 250.941 246.094 251.19 245.606 251.447C245.213 251.653 244.799 251.699 244.287 251.717Z" fill="white"/>
<path d="M257.534 252.632C259.692 252.556 260.952 251.488 260.894 249.825C260.847 248.481 260.089 247.867 257.782 247.372C255.733 246.931 255.292 246.674 255.27 246.035C255.244 245.299 255.995 244.792 257.115 244.785C258.284 244.777 259.103 245.324 259.279 246.231L260.725 245.924C260.496 244.411 259.038 243.453 257.071 243.522C255.072 243.592 253.78 244.646 253.834 246.165C253.877 247.396 254.633 247.962 256.941 248.49C259.071 248.992 259.399 249.188 259.424 249.908C259.453 250.755 258.752 251.308 257.585 251.349C256.338 251.393 255.422 250.832 255.149 249.897L253.702 250.188C254.062 251.792 255.471 252.704 257.534 252.632Z" fill="white"/>
<path d="M263.677 248.254L270.281 248.024C270.317 244.949 268.732 243.115 266.126 243.206C263.615 243.294 262.03 245.126 262.129 247.956C262.224 250.659 263.966 252.407 266.508 252.318C268.187 252.26 269.58 251.33 270.214 249.787L268.822 249.356C268.377 250.364 267.532 250.922 266.397 250.961C264.814 251.016 263.851 250.041 263.677 248.254ZM266.218 244.483C267.689 244.432 268.534 245.235 268.785 246.923L263.668 247.102C263.803 245.464 264.683 244.537 266.218 244.483Z" fill="white"/>
<path d="M275.86 251.992C277.635 251.93 278.915 251.004 279.466 249.368L278.014 249.051C277.649 250.04 276.931 250.593 275.812 250.632C274.085 250.693 273.177 249.444 273.094 247.525C273.045 245.654 273.813 244.282 275.588 244.22C276.627 244.184 277.528 244.745 277.93 245.724L279.323 245.259C278.805 243.724 277.364 242.814 275.557 242.877C272.951 242.968 271.512 244.875 271.575 247.578C271.699 250.216 273.221 252.084 275.86 251.992Z" fill="white"/>
<path d="M286.863 242.722L287.022 247.263C287.092 249.262 286.182 250.254 284.759 250.304C282.936 250.368 282.354 248.835 282.297 247.204L282.146 242.887L280.707 242.937L280.874 247.702C280.931 249.349 281.672 251.773 284.455 251.675C285.702 251.632 286.676 251.118 287.286 250.248L287.325 251.351L288.604 251.306L288.302 242.672L286.863 242.722Z" fill="white"/>
<path d="M292.582 243.051C292.301 243.268 292.055 243.565 291.875 243.908L291.828 242.549L290.549 242.593L290.85 251.228L292.289 251.178L292.138 246.844C292.102 245.821 292.274 244.79 293.085 244.17C293.677 243.701 294.444 243.642 295.056 243.765L295.01 242.437C294.236 242.288 293.218 242.484 292.582 243.051Z" fill="white"/>
<path d="M296.633 240.764L298.056 240.714L298.004 239.243L296.581 239.293L296.633 240.764ZM296.991 251.014L298.414 250.964L298.112 242.329L296.689 242.379L296.991 251.014Z" fill="white"/>
<path d="M302.775 243.335L305.381 243.244L305.34 242.077L302.734 242.168L302.65 239.769L301.227 239.819L301.311 242.217L299.552 242.279L299.593 243.446L301.352 243.385L301.499 247.59C301.53 248.486 301.505 249.143 301.864 249.803C302.513 250.965 304.102 251.085 305.642 250.711L305.599 249.48C304.422 249.713 303.557 249.696 303.15 249.021C302.929 248.661 302.944 248.18 302.919 247.476L302.775 243.335Z" fill="white"/>
<path d="M312.703 241.82L310.414 248.688L307.49 242.002L305.987 242.054L309.79 250.551L308.502 254.454L309.893 254.405L314.158 241.769L312.703 241.82Z" fill="white"/>
<path d="M327.523 241.078C326.387 241.118 325.431 241.695 324.95 242.593C324.455 241.713 323.557 241.216 322.39 241.257C321.351 241.293 320.486 241.756 319.968 242.494L319.935 241.567L318.672 241.611L318.974 250.246L320.397 250.196L320.205 244.712C320.161 243.448 320.883 242.575 322.018 242.535C323.138 242.496 323.918 243.285 323.964 244.596L324.139 250.066L325.562 250.016L325.37 244.531C325.319 243.076 326.224 242.388 327.183 242.355C328.271 242.317 329.065 243.073 329.11 244.353L329.304 249.885L330.727 249.835L330.523 243.999C330.458 242.16 329.314 241.015 327.523 241.078Z" fill="white"/>
<path d="M336.417 249.877C338.992 249.787 340.526 247.876 340.431 245.158C340.337 242.488 338.689 240.672 336.099 240.762C333.572 240.851 332.005 242.746 332.1 245.449C332.194 248.135 333.843 249.967 336.417 249.877ZM336.37 248.518C334.627 248.579 333.687 247.347 333.619 245.396C333.553 243.509 334.339 242.169 336.146 242.106C337.921 242.044 338.844 243.276 338.912 245.211C338.978 247.114 338.161 248.455 336.37 248.518Z" fill="white"/>
<path d="M346.182 240.426C344.935 240.47 343.945 240.985 343.351 241.87L343.312 240.751L342.033 240.795L342.335 249.43L343.774 249.38L343.614 244.823C343.545 242.824 344.454 241.831 345.878 241.782C347.7 241.718 348.283 243.267 348.339 244.882L348.491 249.215L349.93 249.165L349.763 244.384C349.706 242.753 348.965 240.329 346.182 240.426Z" fill="white"/>
<path d="M351.818 238.837L353.241 238.787L353.19 237.316L351.766 237.366L351.818 238.837ZM352.176 249.086L353.599 249.037L353.297 240.402L351.874 240.452L352.176 249.086Z" fill="white"/>
<path d="M357.96 241.408L360.566 241.317L360.525 240.15L357.919 240.241L357.835 237.842L356.412 237.892L356.496 240.29L354.737 240.352L354.778 241.519L356.537 241.458L356.684 245.663C356.715 246.558 356.69 247.216 357.049 247.876C357.698 249.038 359.287 249.158 360.827 248.784L360.784 247.553C359.608 247.786 358.742 247.768 358.335 247.094C358.114 246.734 358.129 246.253 358.105 245.549L357.96 241.408Z" fill="white"/>
<path d="M365.899 248.847C368.474 248.757 370.008 246.847 369.913 244.128C369.82 241.458 368.171 239.642 365.581 239.733C363.054 239.821 361.487 241.717 361.582 244.419C361.676 247.106 363.325 248.937 365.899 248.847ZM365.852 247.488C364.109 247.549 363.169 246.317 363.101 244.366C363.035 242.479 363.821 241.139 365.628 241.076C367.403 241.014 368.326 242.247 368.394 244.181C368.46 246.084 367.643 247.426 365.852 247.488Z" fill="white"/>
<path d="M373.548 240.223C373.267 240.441 373.022 240.738 372.842 241.08L372.794 239.721L371.515 239.766L371.817 248.401L373.256 248.35L373.104 244.017C373.069 242.994 373.241 241.963 374.051 241.342C374.643 240.873 375.41 240.815 376.022 240.937L375.976 239.61C375.202 239.461 374.185 239.657 373.548 240.223Z" fill="white"/>
<path d="M377.599 237.936L379.022 237.887L378.971 236.416L377.548 236.465L377.599 237.936ZM377.957 248.186L379.38 248.136L379.079 239.502L377.655 239.551L377.957 248.186Z" fill="white"/>
<path d="M385.627 239.049C384.38 239.092 383.389 239.607 382.796 240.493L382.757 239.373L381.477 239.418L381.779 248.053L383.218 248.002L383.059 243.445C382.989 241.446 383.899 240.454 385.322 240.404C387.145 240.341 387.728 241.889 387.784 243.504L387.936 247.838L389.375 247.787L389.208 243.006C389.151 241.375 388.409 238.952 385.627 239.049Z" fill="white"/>
<path d="M397.251 238.867L397.285 239.826C396.635 239.097 395.708 238.681 394.541 238.722C392.142 238.805 390.739 240.808 390.83 243.398C390.92 245.988 392.445 247.92 394.859 247.836C395.931 247.799 396.765 247.385 397.365 246.708L397.395 247.555C397.472 249.314 396.704 250.237 395.057 250.295C394.226 250.324 393.35 250.002 392.905 249.169L391.617 249.902C392.382 251.157 393.746 251.717 395.105 251.67C397.168 251.598 398.498 250.703 398.769 248.852C398.834 248.418 398.835 248.001 398.819 247.522L398.515 238.823L397.251 238.867ZM394.989 246.519C393.294 246.578 392.413 245.184 392.349 243.345C392.285 241.522 393.051 240.07 394.81 240.009C396.489 239.95 397.335 241.266 397.402 243.168C397.468 245.071 396.732 246.458 394.989 246.519Z" fill="white"/>
<path d="M407.921 238.254C406.738 238.296 405.842 238.775 405.245 239.549L405.211 238.589L403.948 238.633L404.384 251.106L405.807 251.056L405.645 246.419C406.292 247.053 407.153 247.407 408.224 247.369C410.638 247.285 412.024 245.251 411.934 242.661C411.843 240.071 410.32 238.171 407.921 238.254ZM408.002 246.064C406.259 246.125 405.428 244.793 405.362 242.89C405.295 240.988 406.048 239.617 407.743 239.557C409.502 239.496 410.367 240.891 410.431 242.713C410.495 244.552 409.713 246.005 408.002 246.064Z" fill="white"/>
<path d="M413.998 246.928L415.421 246.878L415.01 235.125L413.587 235.175L413.998 246.928Z" fill="white"/>
<path d="M424.204 239.367C423.669 238.265 422.483 237.746 420.916 237.801C418.965 237.869 417.797 238.822 417.435 240.356L418.808 240.708C419.075 239.642 419.907 239.165 420.946 239.128C422.449 239.076 423.064 239.711 423.144 241.085C421.871 241.305 420.374 241.534 419.296 241.86C417.999 242.289 417.211 243.117 417.259 244.476C417.307 245.867 418.356 247.016 420.291 246.948C421.73 246.898 422.782 246.317 423.433 245.237L423.48 246.596L424.744 246.552L424.557 241.212C424.533 240.524 424.463 239.902 424.204 239.367ZM420.457 245.741C419.225 245.784 418.706 245.13 418.681 244.411C418.653 243.611 419.263 243.19 419.975 242.941C420.798 242.672 421.96 242.503 423.17 242.285C423.184 242.684 423.187 243.245 423.074 243.665C422.903 244.743 421.992 245.688 420.457 245.741Z" fill="white"/>
<path d="M428.792 238.934L431.398 238.843L431.357 237.676L428.751 237.767L428.667 235.369L427.244 235.418L427.328 237.817L425.569 237.878L425.61 239.046L427.368 238.984L427.515 243.19C427.547 244.085 427.522 244.742 427.881 245.402C428.53 246.564 430.119 246.685 431.659 246.311L431.616 245.08C430.439 245.313 429.574 245.295 429.166 244.621C428.946 244.26 428.961 243.779 428.936 243.076L428.792 238.934Z" fill="white"/>
<path d="M436.552 235.557L437.575 235.522L437.534 234.338L436.431 234.377C435.775 234.4 434.976 234.444 434.408 235.12C433.915 235.698 433.91 236.45 433.933 237.106L433.949 237.586L432.478 237.637L432.519 238.804L433.99 238.753L434.251 246.22L435.674 246.171L435.413 238.703L437.684 238.624L437.643 237.457L435.372 237.536L435.348 236.832C435.319 236.017 435.705 235.587 436.552 235.557Z" fill="white"/>
<path d="M442.603 246.169C445.177 246.079 446.711 244.168 446.616 241.45C446.523 238.779 444.874 236.964 442.284 237.054C439.757 237.143 438.191 239.038 438.285 241.741C438.379 244.427 440.028 246.259 442.603 246.169ZM442.555 244.81C440.812 244.87 439.872 243.639 439.804 241.688C439.738 239.801 440.524 238.461 442.331 238.398C444.106 238.336 445.029 239.568 445.097 241.503C445.164 243.406 444.346 244.747 442.555 244.81Z" fill="white"/>
<path d="M450.251 237.545C449.971 237.763 449.725 238.059 449.545 238.402L449.497 237.043L448.218 237.087L448.52 245.722L449.959 245.672L449.808 241.338C449.772 240.315 449.944 239.284 450.755 238.664C451.347 238.195 452.113 238.136 452.726 238.259L452.679 236.931C451.906 236.782 450.888 236.978 450.251 237.545Z" fill="white"/>
<path d="M463.05 236.345C461.914 236.385 460.958 236.963 460.477 237.86C459.982 236.981 459.084 236.484 457.917 236.524C456.877 236.561 456.013 237.023 455.494 237.762L455.462 236.834L454.199 236.878L454.501 245.513L455.924 245.463L455.732 239.979C455.688 238.716 456.41 237.842 457.545 237.802C458.664 237.763 459.444 238.552 459.49 239.864L459.665 245.333L461.089 245.283L460.897 239.798C460.846 238.343 461.751 237.655 462.71 237.622C463.797 237.584 464.592 238.341 464.637 239.62L464.83 245.152L466.253 245.103L466.049 239.266C465.985 237.427 464.84 236.283 463.05 236.345Z" fill="white"/>
<path d="M477.072 236.08L474.782 242.948L471.859 236.262L470.356 236.314L474.159 244.811L472.871 248.714L474.262 248.665L478.527 236.029L477.072 236.08Z" fill="white"/>
<path d="M483.515 244.74C486.09 244.65 487.624 242.739 487.529 240.021C487.435 237.351 485.787 235.535 483.196 235.626C480.67 235.714 479.103 237.61 479.198 240.312C479.292 242.998 480.941 244.83 483.515 244.74ZM483.468 243.381C481.725 243.442 480.785 242.21 480.717 240.259C480.651 238.372 481.437 237.032 483.243 236.969C485.018 236.907 485.942 238.139 486.01 240.074C486.076 241.977 485.258 243.318 483.468 243.381Z" fill="white"/>
<path d="M495.127 235.449L495.286 239.99C495.356 241.989 494.446 242.982 493.023 243.031C491.2 243.095 490.618 241.562 490.561 239.931L490.41 235.614L488.971 235.664L489.137 240.429C489.195 242.076 489.936 244.5 492.718 244.403C493.966 244.359 494.94 243.845 495.55 242.975L495.589 244.078L496.868 244.034L496.566 235.399L495.127 235.449Z" fill="white"/>
<path d="M498.917 236.037C499.915 236.179 500.469 235.551 500.43 234.431L500.359 232.385L498.792 232.439L498.855 234.246L499.686 234.217C499.757 234.855 499.647 235.387 498.99 235.362L498.917 236.037Z" fill="white"/>
<path d="M505.337 243.738L506.792 243.687L509.624 234.943L508.185 234.993L506.009 241.889L503.34 235.162L501.901 235.213L505.337 243.738Z" fill="white"/>
<path d="M511.978 239.584L518.582 239.353C518.619 236.278 517.034 234.444 514.427 234.535C511.917 234.623 510.332 236.455 510.431 239.285C510.525 241.988 512.268 243.736 514.81 243.647C516.489 243.589 517.881 242.659 518.516 241.116L517.124 240.685C516.679 241.693 515.834 242.251 514.699 242.29C513.115 242.346 512.153 241.371 511.978 239.584ZM514.52 235.813C515.991 235.761 516.836 236.564 517.087 238.253L511.97 238.431C512.105 236.793 512.985 235.866 514.52 235.813Z" fill="white"/>
<path d="M527.38 234.083C526.292 234.121 525.458 234.534 524.857 235.195L524.729 231.534L523.306 231.583L523.708 243.096L524.972 243.052L524.937 242.061C525.587 242.807 526.515 243.239 527.682 243.198C530.097 243.113 531.483 241.08 531.392 238.489C531.302 235.899 529.778 233.999 527.38 234.083ZM527.461 241.893C525.718 241.954 524.887 240.622 524.82 238.719C524.754 236.816 525.506 235.445 527.201 235.386C528.96 235.324 529.825 236.719 529.889 238.542C529.953 240.381 529.172 241.833 527.461 241.893Z" fill="white"/>
<path d="M534.215 238.807L540.819 238.576C540.855 235.501 539.27 233.668 536.664 233.759C534.153 233.846 532.568 235.679 532.667 238.509C532.762 241.211 534.504 242.96 537.046 242.871C538.725 242.812 540.118 241.883 540.752 240.34L539.36 239.908C538.915 240.916 538.07 241.474 536.935 241.514C535.352 241.569 534.389 240.594 534.215 238.807ZM536.757 235.036C538.228 234.985 539.072 235.788 539.323 237.476L534.206 237.655C534.341 236.017 535.221 235.09 536.757 235.036Z" fill="white"/>
<path d="M543.662 238.477L550.266 238.247C550.303 235.171 548.718 233.338 546.111 233.429C543.601 233.516 542.016 235.349 542.115 238.179C542.209 240.881 543.951 242.63 546.494 242.541C548.173 242.482 549.565 241.553 550.2 240.01L548.808 239.578C548.363 240.586 547.518 241.144 546.382 241.184C544.799 241.239 543.837 240.264 543.662 238.477ZM546.204 234.706C547.675 234.655 548.52 235.458 548.771 237.146L543.654 237.325C543.789 235.687 544.669 234.76 546.204 234.706Z" fill="white"/>
<path d="M555.805 233.106C554.557 233.15 553.567 233.665 552.973 234.55L552.934 233.431L551.655 233.475L551.957 242.11L553.396 242.06L553.237 237.502C553.167 235.504 554.077 234.511 555.5 234.462C557.323 234.398 557.905 235.947 557.962 237.562L558.113 241.895L559.552 241.845L559.385 237.064C559.328 235.433 558.587 233.009 555.805 233.106Z" fill="white"/>
<path d="M566.678 241.596L567.862 241.555L569.727 234.909L571.971 241.411L573.219 241.367L575.555 232.641L574.148 232.69L572.434 239.073L570.278 232.825L569.031 232.868L567.317 239.252L565.161 233.004L563.738 233.037L566.678 241.596Z" fill="white"/>
<path d="M583.201 233.814C582.666 232.712 581.479 232.194 579.912 232.248C577.962 232.316 576.794 233.27 576.432 234.803L577.805 235.156C578.072 234.09 578.903 233.612 579.943 233.576C581.446 233.524 582.06 234.158 582.14 235.533C580.867 235.753 579.37 235.981 578.293 236.307C576.995 236.737 576.208 237.565 576.255 238.924C576.304 240.315 577.353 241.463 579.288 241.396C580.727 241.345 581.779 240.764 582.43 239.685L582.477 241.044L583.74 241L583.554 235.659C583.53 234.972 583.46 234.35 583.201 233.814ZM579.454 240.189C578.222 240.232 577.703 239.578 577.678 238.858C577.65 238.059 578.26 237.637 578.971 237.388C579.794 237.119 580.957 236.951 582.166 236.732C582.18 237.132 582.184 237.692 582.071 238.113C581.9 239.191 580.989 240.136 579.454 240.189Z" fill="white"/>
<path d="M585.628 230.672L587.052 230.622L587 229.151L585.577 229.201L585.628 230.672ZM585.987 240.922L587.41 240.872L587.108 232.237L585.685 232.287L585.987 240.922Z" fill="white"/>
<path d="M591.77 233.243L594.377 233.152L594.336 231.985L591.73 232.076L591.646 229.677L590.223 229.727L590.306 232.125L588.547 232.187L588.588 233.354L590.347 233.293L590.494 237.498C590.526 238.394 590.5 239.051 590.86 239.711C591.509 240.873 593.098 240.993 594.638 240.619L594.595 239.388C593.418 239.621 592.553 239.604 592.145 238.929C591.925 238.569 591.94 238.088 591.915 237.385L591.77 233.243Z" fill="white"/>
<path d="M596.2 230.303L597.623 230.253L597.572 228.782L596.149 228.832L596.2 230.303ZM596.558 240.552L597.982 240.503L597.68 231.868L596.257 231.918L596.558 240.552Z" fill="white"/>
<path d="M604.228 231.415C602.981 231.459 601.99 231.974 601.397 232.859L601.358 231.74L600.079 231.784L600.38 240.419L601.82 240.369L601.66 235.811C601.59 233.813 602.5 232.82 603.923 232.771C605.746 232.707 606.329 234.256 606.385 235.871L606.537 240.204L607.976 240.154L607.809 235.373C607.752 233.742 607.011 231.318 604.228 231.415Z" fill="white"/>
<path d="M615.852 231.233L615.886 232.193C615.236 231.463 614.309 231.047 613.142 231.088C610.743 231.172 609.34 233.174 609.431 235.764C609.521 238.355 611.046 240.287 613.46 240.202C614.532 240.165 615.366 239.752 615.966 239.074L615.996 239.922C616.074 241.68 615.305 242.603 613.658 242.661C612.827 242.69 611.951 242.368 611.506 241.535L610.219 242.269C610.983 243.523 612.347 244.084 613.706 244.036C615.769 243.964 617.099 243.069 617.37 241.218C617.435 240.784 617.437 240.368 617.42 239.888L617.116 231.189L615.852 231.233ZM613.59 238.885C611.895 238.944 611.014 237.55 610.95 235.711C610.886 233.888 611.652 232.437 613.411 232.375C615.09 232.317 615.936 233.632 616.003 235.535C616.069 237.438 615.333 238.824 613.59 238.885Z" fill="white"/>
<path d="M625.983 228.942L627.007 228.907L626.966 227.723L625.862 227.762C625.207 227.785 624.408 227.829 623.839 228.505C623.347 229.083 623.341 229.835 623.364 230.491L623.381 230.97L621.91 231.022L621.95 232.189L623.422 232.138L623.683 239.605L625.106 239.556L624.845 232.088L627.115 232.009L627.075 230.841L624.804 230.921L624.779 230.217C624.751 229.402 625.136 228.972 625.983 228.942Z" fill="white"/>
<path d="M632.034 239.554C634.608 239.464 636.143 237.553 636.047 234.835C635.954 232.164 634.306 230.349 631.715 230.439C629.189 230.528 627.622 232.423 627.717 235.126C627.81 237.812 629.459 239.644 632.034 239.554ZM631.986 238.195C630.243 238.255 629.304 237.023 629.236 235.073C629.17 233.186 629.955 231.846 631.762 231.782C633.537 231.72 634.461 232.953 634.528 234.888C634.595 236.791 633.777 238.132 631.986 238.195Z" fill="white"/>
<path d="M639.683 230.93C639.402 231.147 639.156 231.444 638.976 231.787L638.929 230.428L637.649 230.472L637.951 239.107L639.39 239.057L639.239 234.723C639.203 233.7 639.375 232.669 640.186 232.049C640.778 231.58 641.544 231.521 642.157 231.644L642.111 230.316C641.337 230.167 640.319 230.363 639.683 230.93Z" fill="white"/>
<path d="M642.907 238.934L644.474 238.879L644.42 237.312L642.853 237.367L642.907 238.934Z" fill="white"/>
<mask id="mask0" mask-type="alpha" maskUnits="userSpaceOnUse" x="36" y="100" width="636" height="180">
<path d="M667.462 206.097C671.968 201.444 671.968 194.12 671.968 179.474V133.048C671.968 117.513 671.968 109.745 667.098 105.029C662.228 100.314 654.464 100.564 638.937 101.065L79.9694 119.08C65.3306 119.552 42.0058 98.8469 37.5002 103.5C32.9947 108.153 49.0002 136.417 49.0002 151.064V217.254C49.0002 223.808 49.0002 227.085 50.2229 230.03C51.4455 232.975 53.7663 235.289 58.4078 239.916L97.7887 279.176V228.965L640.999 211.457C655.638 210.986 662.957 210.75 667.462 206.097Z" fill="url(#paint3_linear)"/>
</mask>
<g mask="url(#mask0)">
<path d="M48.6978 231.358L83.838 266.393C89.6482 272.186 92.5533 275.082 95.0198 274.058C97.4863 273.034 97.4863 268.932 97.4863 260.727V228.12L48.6978 231.358Z" fill="url(#paint4_linear)"/>
<path d="M48.6978 231.358L83.838 266.393C89.6482 272.186 92.5533 275.082 95.0198 274.058C97.4863 273.034 97.4863 268.932 97.4863 260.727V228.12L48.6978 231.358Z" fill="black" fill-opacity="0.32"/>
<path d="M671.666 180.298C671.666 194.945 671.666 202.268 667.16 206.921C662.655 211.574 655.335 211.81 640.696 212.282L48.6978 231.362V120.903L638.635 101.889C654.162 101.388 661.926 101.138 666.796 105.854C671.666 110.569 671.666 118.337 671.666 133.872V180.298Z" fill="url(#paint5_linear)"/>
</g>
<path d="M146.338 194.095L149.84 193.973L148.75 162.792L160.839 162.37L160.722 159.012L133.042 159.978L133.16 163.336L145.248 162.914L146.338 194.095Z" fill="#34332D"/>
<path d="M181.297 171.405C179.788 168.096 176.271 166.393 171.569 166.558C165.813 166.759 162.261 169.572 161.223 174.219L164.712 175.106C165.552 171.667 168.039 169.995 171.589 169.871C176.578 169.697 178.528 171.886 178.742 176.633C175.303 177.186 170.476 177.883 167.005 178.868C163.202 180.01 160.548 182.408 160.696 186.629C160.84 190.755 163.939 194.201 169.839 193.995C174.204 193.842 177.598 191.995 179.499 188.662L179.648 192.932L182.814 192.821L182.252 176.751C182.183 174.784 181.972 172.87 181.297 171.405ZM170.115 190.911C165.942 191.057 164.325 188.76 164.246 186.505C164.149 183.723 166.358 182.349 168.543 181.648C171.394 180.78 175.457 180.206 178.849 179.704C178.889 180.855 178.852 182.537 178.608 183.794C178.122 187.75 175.056 190.739 170.115 190.911Z" fill="#34332D"/>
<path d="M189.034 192.604L192.584 192.48L192.148 180.008L205.296 192.036L210.429 191.857L196.257 179.384L207.94 166.008L203.239 166.172L192.114 179.048L191.376 157.941L187.827 158.065L189.034 192.604Z" fill="#34332D"/>
<path d="M214.296 179.763L234.684 179.051C234.604 169.88 229.95 164.519 222.274 164.787C214.791 165.048 210.178 170.493 210.475 178.983C210.763 187.234 215.795 192.39 223.326 192.127C228.363 191.951 232.494 189.213 234.399 184.632L231.045 183.5C229.575 186.77 226.806 188.643 223.113 188.772C217.932 188.953 214.791 185.653 214.296 179.763ZM222.482 167.998C227.28 167.83 230.116 170.661 230.886 176.205L214.24 176.787C214.627 171.346 217.446 168.174 222.482 167.998Z" fill="#34332D"/>
<path d="M260.85 163.44C257.252 163.566 254.519 165.054 252.732 167.518L252.323 155.813L248.821 155.935L250.028 190.474L253.194 190.363L253.07 186.814C255.033 189.387 257.92 190.919 261.662 190.788C268.954 190.534 272.967 184.438 272.695 176.667C272.426 168.943 267.998 163.19 260.85 163.44ZM261.212 187.538C255.696 187.731 252.951 183.408 252.74 177.363C252.528 171.319 255.016 166.91 260.389 166.722C266.001 166.526 268.749 170.945 268.954 176.797C269.16 182.698 266.633 187.349 261.212 187.538Z" fill="#34332D"/>
<path d="M280.35 177.456L300.738 176.744C300.657 167.573 296.003 162.212 288.328 162.48C280.844 162.742 276.232 168.186 276.528 176.677C276.817 184.928 281.848 190.083 289.379 189.82C294.416 189.644 298.547 186.907 300.452 182.325L297.099 181.194C295.628 184.463 292.86 186.337 289.166 186.466C283.985 186.647 280.844 183.346 280.35 177.456ZM288.536 165.691C293.333 165.524 296.17 168.354 296.94 173.899L280.294 174.48C280.68 169.039 283.499 165.867 288.536 165.691Z" fill="#34332D"/>
<path d="M328.176 164.835L336.14 164.557L336.034 161.535L328.071 161.813L327.819 154.617L324.317 154.74L324.569 161.935L311.761 162.382L311.509 155.187L307.959 155.311L308.211 162.506L302.694 162.699L302.8 165.721L308.316 165.529L308.788 179.008C308.877 181.551 308.846 183.425 309.873 185.31C311.671 188.658 316.248 189.074 320.581 188.01L320.474 184.94C316.8 185.645 314.25 185.494 313.025 183.423C312.361 182.294 312.41 180.947 312.334 178.788L311.866 165.405L324.675 164.957L325.146 178.437C325.235 180.98 325.204 182.854 326.183 184.741C328.029 188.086 332.558 188.505 336.939 187.439L336.832 184.369C333.11 185.075 330.56 184.924 329.335 182.854C328.671 181.724 328.72 180.378 328.644 178.219L328.176 164.835Z" fill="#34332D"/>
<path d="M343.967 175.234L364.355 174.522C364.275 165.352 359.62 159.991 351.945 160.259C344.462 160.52 339.849 165.964 340.146 174.455C340.434 182.706 345.465 187.862 352.997 187.599C358.034 187.423 362.165 184.685 364.07 180.104L360.716 178.972C359.246 182.241 356.477 184.115 352.784 184.244C347.603 184.425 344.462 181.125 343.967 175.234ZM352.153 163.469C356.951 163.302 359.787 166.133 360.557 171.677L343.911 172.258C344.298 166.818 347.117 163.645 352.153 163.469Z" fill="#34332D"/>
<path d="M374.429 161.875C373.684 162.525 372.993 163.366 372.499 164.344L372.356 160.266L369.19 160.377L370.095 186.281L373.645 186.157L373.194 173.253C373.085 170.135 373.352 166.764 375.87 164.61C377.737 163.056 380.13 162.829 382.066 163.241L381.95 159.931C379.627 159.436 376.384 160.078 374.429 161.875Z" fill="#34332D"/>
<path d="M407.803 185.685C412.936 185.506 416.64 182.927 418.396 178.207L414.859 177.322C413.623 180.439 411.187 182.205 407.685 182.327C402.121 182.521 399.146 178.495 398.882 172.308C398.719 166.262 401.256 161.899 406.964 161.7C410.37 161.581 413.216 163.306 414.525 166.383L417.938 165.111C416.345 160.748 412.124 158.157 406.895 158.34C399.124 158.611 394.951 164.28 395.14 172.439C395.516 180.446 399.984 185.958 407.803 185.685Z" fill="#34332D"/>
<path d="M442.372 162.288C440.863 158.979 437.346 157.277 432.645 157.441C426.888 157.642 423.336 160.455 422.298 165.102L425.787 165.989C426.628 162.55 429.115 160.878 432.664 160.754C437.653 160.58 439.603 162.769 439.817 167.517C436.378 168.069 431.552 168.766 428.08 169.751C424.278 170.893 421.624 173.291 421.771 177.512C421.915 181.638 425.014 185.084 430.914 184.878C435.279 184.725 438.673 182.878 440.574 179.545L440.723 183.815L443.889 183.704L443.327 167.634C443.259 165.667 443.048 163.753 442.372 162.288ZM431.191 181.794C427.017 181.94 425.4 179.643 425.321 177.388C425.224 174.606 427.433 173.232 429.618 172.531C432.469 171.663 436.532 171.089 439.924 170.587C439.965 171.738 439.927 173.42 439.683 174.678C439.197 178.633 436.132 181.622 431.191 181.794Z" fill="#34332D"/>
<path d="M454.443 159.081C453.697 159.731 453.006 160.572 452.512 161.55L452.37 157.472L449.204 157.583L450.109 183.487L453.659 183.363L453.208 170.459C453.099 167.341 453.365 163.97 455.884 161.816C457.75 160.262 460.144 160.035 462.08 160.447L461.964 157.137C459.641 156.642 456.398 157.284 454.443 159.081Z" fill="#34332D"/>
<path d="M468.907 170.871L489.294 170.159C489.214 160.989 484.56 155.628 476.885 155.896C469.401 156.157 464.789 161.601 465.085 170.092C465.374 178.343 470.405 183.499 477.936 183.236C482.973 183.06 487.104 180.322 489.009 175.741L485.656 174.609C484.185 177.878 481.417 179.752 477.723 179.881C472.542 180.062 469.401 176.762 468.907 170.871ZM477.093 159.106C481.89 158.939 484.727 161.77 485.497 167.314L468.851 167.895C469.237 162.455 472.056 159.282 477.093 159.106Z" fill="#34332D"/>
<path d="M515.505 181.924C523.18 181.656 527.591 175.93 527.306 167.775C527.026 159.764 522.272 154.311 514.549 154.581C506.97 154.845 502.461 160.526 502.745 168.633C503.027 176.692 507.782 182.194 515.505 181.924ZM515.388 178.566C509.775 178.762 506.706 174.787 506.487 168.502C506.275 162.458 508.862 158.141 514.667 157.938C520.327 157.741 523.346 161.67 523.564 167.906C523.779 174.046 521.096 178.367 515.388 178.566Z" fill="#34332D"/>
<path d="M542.021 147.954L545.091 147.847L544.987 144.872L541.677 144.988C539.662 145.058 537.558 145.324 536.034 147.058C534.65 148.691 534.575 150.663 534.645 152.678L534.712 154.597L530.203 154.754L530.309 157.776L534.818 157.619L535.618 180.501L539.12 180.379L538.32 157.497L545.419 157.249L545.314 154.227L538.214 154.475L538.134 152.172C538.035 149.342 539.286 148.049 542.021 147.954Z" fill="#34332D"/>
<path d="M559.074 148.511L562.576 148.389L562.437 144.407L558.935 144.529L559.074 148.511ZM560.163 179.644L563.665 179.522L562.759 153.617L559.257 153.74L560.163 179.644Z" fill="#34332D"/>
<path d="M576.268 156.172L584.183 155.895L584.077 152.873L576.162 153.149L575.91 145.954L572.361 146.078L572.612 153.273L567.096 153.466L567.201 156.488L572.718 156.295L573.189 169.775C573.278 172.318 573.247 174.192 574.274 176.077C576.072 179.425 580.649 179.841 584.983 178.777L584.875 175.707C581.202 176.412 578.651 176.261 577.426 174.19C576.762 173.061 576.811 171.714 576.736 169.555L576.268 156.172Z" fill="#34332D"/>
<g opacity="0.12" filter="url(#filter0_f)">
<path d="M623 78V120.285L40 146V103.715L623 78Z" fill="#1E1E1E"/>
</g>
<mask id="mask1" mask-type="alpha" maskUnits="userSpaceOnUse" x="0" y="0" width="623" height="180">
<path d="M618.462 106.097C622.968 101.444 622.968 94.1203 622.968 79.474V33.048C622.968 17.5127 622.968 9.74506 618.098 5.02948C613.228 0.3139 605.464 0.564122 589.937 1.06456L30.9692 19.0801C16.3304 19.5519 9.01102 19.7878 4.50551 24.4409C-4.76837e-07 29.0939 0 36.4171 0 51.0635V117.254C0 123.808 0 127.085 1.22266 130.03C2.44531 132.975 4.76605 135.289 9.40753 139.916L48.7885 179.176V128.965L591.999 111.457C606.637 110.986 613.957 110.75 618.462 106.097Z" fill="url(#paint6_linear)"/>
</mask>
<g mask="url(#mask1)">
<path d="M0 130.534L48.7885 179.176V127.296L0 130.534Z" fill="url(#paint7_linear)"/>
<path d="M0 130.534L48.7885 179.176V127.296L0 130.534Z" fill="black" fill-opacity="0.32"/>
<path d="M622.968 79.474C622.968 94.1203 622.968 101.444 618.462 106.097C613.957 110.75 606.637 110.986 591.999 111.457L0 130.538V51.0635C0 36.4172 0 29.094 4.50551 24.4409C9.01102 19.7878 16.3304 19.5519 30.9692 19.0801L589.937 1.06458C605.464 0.564142 613.228 0.313921 618.098 5.0295C622.968 9.74508 622.968 17.5127 622.968 33.048V79.474Z" fill="url(#paint8_linear)"/>
</g>
<path d="M73.1839 92.3703L79.8039 92.1391L79.3126 78.0837L90.3974 57.1881L82.77 57.4545L75.741 70.7159L67.8031 57.9771L60.1758 58.2435L72.6926 78.3149L73.1839 92.3703Z" fill="#34332D"/>
<path d="M102.798 92.0566C110.569 91.7852 115.745 85.985 115.464 77.9259C115.184 69.9148 109.661 64.4402 101.842 64.7133C94.1665 64.9813 88.9404 70.7352 89.2238 78.8423C89.5038 86.8534 94.9784 92.3296 102.798 92.0566ZM102.585 85.9643C98.5072 86.1067 96.2942 83.2542 96.1315 78.601C95.9739 74.0918 97.7854 70.9547 102.055 70.8056C106.18 70.6615 108.395 73.562 108.556 78.1672C108.712 82.6284 106.758 85.8186 102.585 85.9643Z" fill="#34332D"/>
<path d="M137.507 64.1883L137.967 77.3322C138.191 83.7603 134.963 84.8336 132.708 84.9124C127.143 85.1067 126.936 79.1583 126.853 76.8078L126.426 64.5752L119.806 64.8064L120.314 79.3415C120.389 81.5002 120.738 91.4781 130.86 91.1247C134.602 90.994 137.337 89.5537 139.134 87.3776L139.228 90.064L144.985 89.863L144.079 63.9588L137.507 64.1883Z" fill="#34332D"/>
<path d="M159.365 64.6737C158.191 65.4352 157.315 66.4744 156.685 67.6971L156.539 63.5237L150.783 63.7247L151.688 89.6289L158.26 89.3994L157.797 76.1595C157.693 73.1853 158.867 71.031 161.132 69.8952C162.642 69.1221 164.748 68.9045 166.202 69.2859L165.989 63.1937C163.629 62.9879 161.196 63.4571 159.365 64.6737Z" fill="#34332D"/>
<path d="M188.39 67.4545L195.874 67.1931L195.698 62.1562L188.214 62.4175L187.963 55.2219L181.439 55.4498L181.69 62.6454L177.277 62.7995L177.453 67.8364L181.866 67.6823L182.212 77.5642C182.321 80.6823 182.162 82.9933 183.539 85.2986C185.782 89.0146 191.266 89.2554 196.603 88.0604L196.414 82.6397C193.359 83.1786 190.628 83.3701 189.413 81.5874C188.756 80.6498 188.793 78.9674 188.722 76.9527L188.39 67.4545Z" fill="#34332D"/>
<path d="M201.824 58.3401L208.348 58.1122L208.147 52.3558L201.623 52.5836L201.824 58.3401ZM202.856 87.8421L209.38 87.6142L208.474 61.71L201.95 61.9379L202.856 87.8421Z" fill="#34332D"/>
<path d="M244.378 59.8319C241.068 59.9475 238.195 61.5847 236.603 64.1378C235.175 61.7382 232.625 60.2423 228.931 60.3713C225.813 60.4802 223.126 61.9189 221.472 64.0899L221.373 61.2596L215.617 61.4606L216.522 87.3648L223.094 87.1353L222.546 71.4489C222.442 68.4747 224.145 66.35 226.879 66.2545C229.71 66.1557 231.507 68.1101 231.626 71.516L232.161 86.8187L238.685 86.5909L238.137 70.9044C238.033 67.9303 239.735 65.8055 242.47 65.7101C245.3 65.6112 247.097 67.5657 247.216 70.9716L247.751 86.2743L254.275 86.0464L253.68 69.0168C253.482 63.3563 250.278 59.6258 244.378 59.8319Z" fill="#34332D"/>
<path d="M265.219 74.5215L283.448 73.8849C283.887 64.4558 278.925 58.5294 270.77 58.8142C263.095 59.0822 257.867 64.7881 258.164 73.279C258.435 81.0502 264.147 86.4222 272.11 86.1441C277.099 85.9699 281.56 83.0764 283.361 78.2586L276.772 76.6156C275.886 78.7598 274.055 79.9764 271.513 80.0652C267.963 80.1892 265.828 78.1985 265.219 74.5215ZM271.256 64.4647C274.374 64.3558 276.057 65.7859 276.659 69.271L265.242 69.6697C265.798 66.3363 267.754 64.587 271.256 64.4647Z" fill="#34332D"/>
<path d="M298.281 54.9717L304.805 54.7439L304.604 48.9874L298.08 49.2152L298.281 54.9717ZM299.312 84.4737L305.837 84.2459L304.931 58.3417L298.407 58.5695L299.312 84.4737Z" fill="#34332D"/>
<path d="M323.174 84.3609C329.938 84.1247 333.903 80.7682 333.717 75.4435C333.576 71.414 331.248 69.382 325.294 68.053C319.196 66.729 318.317 66.3274 318.27 64.9842C318.218 63.4971 319.771 62.5784 322.175 62.6385C324.628 62.745 326.155 63.8443 326.462 65.7548L333.088 64.3227C332.252 59.645 327.927 56.8182 321.835 57.031C315.55 57.2504 311.632 60.5572 311.806 65.5462C311.945 69.5277 314.318 71.4621 320.707 72.872C326.372 74.1631 327.007 74.4771 327.061 76.0121C327.118 77.6431 325.808 78.6495 323.458 78.7315C320.579 78.8321 318.562 77.4616 317.949 75.0335L311.316 76.2738C312.369 81.6643 316.65 84.5887 323.174 84.3609Z" fill="#34332D"/>
<path d="M360.311 55.6874C357.624 55.7812 355.396 56.6274 353.718 58.0789L353.668 56.6398L347.911 56.8408L349.219 94.2579L355.791 94.0284L355.357 81.604C357.073 82.6008 359.156 83.1044 361.602 83.0189C368.75 82.7693 373.341 76.7014 373.069 68.9302C372.792 61.015 367.746 55.4277 360.311 55.6874ZM360.344 77.2513C355.979 77.4038 354.285 74.293 354.121 69.5919C353.956 64.8907 355.477 61.6677 359.554 61.5253C363.919 61.3729 366.01 64.854 366.161 69.1714C366.314 73.5367 364.565 77.1039 360.344 77.2513Z" fill="#34332D"/>
<path d="M386.477 56.7428C385.302 57.5043 384.426 58.5435 383.797 59.7662L383.651 55.5928L377.894 55.7938L378.8 81.698L385.372 81.4685L384.909 68.2285C384.805 65.2544 385.978 63.1001 388.244 61.9643C389.754 61.1912 391.86 60.9735 393.314 61.355L393.101 55.2627C390.74 55.057 388.307 55.5262 386.477 56.7428Z" fill="#34332D"/>
<path d="M398.017 51.4889L404.541 51.261L404.34 45.5046L397.816 45.7324L398.017 51.4889ZM399.049 80.9908L405.573 80.763L404.667 54.8588L398.143 55.0867L399.049 80.9908Z" fill="#34332D"/>
<path d="M424.206 80.8328C430.202 80.6234 434.364 77.4042 435.658 71.8356L428.942 70.6773C428.261 73.1986 426.919 74.6383 423.993 74.7405C420.059 74.8779 417.937 71.8781 417.779 67.3689C417.628 63.0515 419.337 59.7258 423.463 59.5818C425.861 59.498 427.979 61.009 428.841 63.6686L435.304 61.7138C433.967 56.4292 429.438 53.2734 423.346 53.4861C415.43 53.7625 410.596 59.7429 410.871 67.6101C411.143 75.3813 416.146 81.1142 424.206 80.8328Z" fill="#34332D"/>
<path d="M445.204 68.2363L463.432 67.5997C463.871 58.1707 458.909 52.2442 450.754 52.529C443.079 52.797 437.851 58.503 438.148 66.9938C438.419 74.765 444.131 80.137 452.094 79.8589C457.083 79.6847 461.544 76.7912 463.345 71.9734L456.756 70.3304C455.87 72.4746 454.039 73.6912 451.497 73.78C447.947 73.904 445.812 71.9133 445.204 68.2363ZM451.24 58.1795C454.358 58.0706 456.041 59.5007 456.643 62.9859L445.226 63.3845C445.782 60.0511 447.738 58.3018 451.24 58.1795Z" fill="#34332D"/>
<path d="M469.693 78.5239L476.217 78.2961L474.984 43.0376L468.46 43.2654L469.693 78.5239Z" fill="#34332D"/>
<path d="M488.583 66.7214L506.812 66.0849C507.251 56.6558 502.289 50.7294 494.134 51.0142C486.459 51.2822 481.231 56.9881 481.528 65.4789C481.799 73.2502 487.51 78.6221 495.474 78.344C500.463 78.1698 504.924 75.2764 506.725 70.4586L500.136 68.8155C499.25 70.9598 497.419 72.1764 494.877 72.2652C491.327 72.3891 489.192 70.3984 488.583 66.7214ZM494.62 56.6646C497.738 56.5558 499.421 57.9859 500.023 61.471L488.606 61.8697C489.162 58.5363 491.118 56.7869 494.62 56.6646Z" fill="#34332D"/>
<path d="M522.74 77.3919C529.504 77.1557 533.469 73.7993 533.283 68.4745C533.142 64.445 530.814 62.413 524.86 61.084C518.762 59.76 517.883 59.3584 517.836 58.0152C517.784 56.5281 519.337 55.6094 521.741 55.6695C524.194 55.776 525.721 56.8753 526.028 58.7858L532.654 57.3537C531.818 52.676 527.493 49.8492 521.4 50.062C515.116 50.2814 511.197 53.5882 511.372 58.5772C511.511 62.5587 513.884 64.4931 520.273 65.903C525.938 67.1941 526.573 67.5081 526.627 69.0431C526.684 70.6742 525.374 71.6805 523.024 71.7626C520.145 71.8631 518.128 70.4926 517.515 68.0646L510.882 69.3048C511.935 74.6953 516.216 77.6197 522.74 77.3919Z" fill="#34332D"/>
<path d="M548.974 76.4758C555.738 76.2396 559.703 72.8831 559.517 67.5584C559.376 63.5289 557.048 61.4969 551.094 60.1679C544.996 58.8439 544.117 58.4423 544.07 57.0991C544.018 55.612 545.571 54.6933 547.975 54.7534C550.428 54.8599 551.955 55.9592 552.262 57.8697L558.888 56.4376C558.052 51.7599 553.727 48.9331 547.634 49.1459C541.35 49.3653 537.431 52.6721 537.606 57.6611C537.745 61.6426 540.118 63.577 546.507 64.9869C552.172 66.278 552.807 66.592 552.861 68.127C552.918 69.758 551.608 70.7644 549.258 70.8464C546.379 70.947 544.362 69.5765 543.749 67.1484L537.116 68.3887C538.169 73.7792 542.45 76.7036 548.974 76.4758Z" fill="#34332D"/>
<defs>
<filter id="filter0_f" x="8" y="46" width="647" height="132" filterUnits="userSpaceOnUse" color-interpolation-filters="sRGB">
<feFlood flood-opacity="0" result="BackgroundImageFix"/>
<feBlend mode="normal" in="SourceGraphic" in2="BackgroundImageFix" result="shape"/>
<feGaussianBlur stdDeviation="16" result="effect1_foregroundBlur"/>
</filter>
<linearGradient id="paint0_linear" x1="336" y1="296" x2="336" y2="316" gradientUnits="userSpaceOnUse">
<stop stop-color="#4C5756"/>
<stop offset="1" stop-color="#2D3433"/>
</linearGradient>
<linearGradient id="paint1_linear" x1="336" y1="296" x2="336" y2="316" gradientUnits="userSpaceOnUse">
<stop stop-color="#4C5756"/>
<stop offset="1" stop-color="#2D3433"/>
</linearGradient>
<linearGradient id="paint2_linear" x1="395" y1="149" x2="395" y2="280" gradientUnits="userSpaceOnUse">
<stop stop-color="#4C5756"/>
<stop offset="1" stop-color="#2D3433"/>
</linearGradient>
<linearGradient id="paint3_linear" x1="354.334" y1="100.807" x2="359.116" y2="470.489" gradientUnits="userSpaceOnUse">
<stop stop-color="#FFD000"/>
<stop offset="0.0666667" stop-color="#FFD000"/>
<stop offset="0.133333" stop-color="#FECF00"/>
<stop offset="0.2" stop-color="#FDCD00"/>
<stop offset="0.266667" stop-color="#FCCA00"/>
<stop offset="0.333333" stop-color="#FAC700"/>
<stop offset="0.4" stop-color="#F8C300"/>
<stop offset="0.466667" stop-color="#F6BF00"/>
<stop offset="0.533333" stop-color="#F4BA00"/>
<stop offset="0.6" stop-color="#F1B600"/>
<stop offset="0.666667" stop-color="#EFB200"/>
<stop offset="0.733333" stop-color="#EEAF00"/>
<stop offset="0.8" stop-color="#ECAC00"/>
<stop offset="0.866667" stop-color="#EBAA00"/>
<stop offset="0.933333" stop-color="#EBA900"/>
<stop offset="1" stop-color="#EBA900"/>
</linearGradient>
<linearGradient id="paint4_linear" x1="73.092" y1="228.12" x2="78.3477" y2="335.405" gradientUnits="userSpaceOnUse">
<stop stop-color="#FFD000"/>
<stop offset="0.0666667" stop-color="#FFD000"/>
<stop offset="0.133333" stop-color="#FECF00"/>
<stop offset="0.2" stop-color="#FDCD00"/>
<stop offset="0.266667" stop-color="#FCCA00"/>
<stop offset="0.333333" stop-color="#FAC700"/>
<stop offset="0.4" stop-color="#F8C300"/>
<stop offset="0.466667" stop-color="#F6BF00"/>
<stop offset="0.533333" stop-color="#F4BA00"/>
<stop offset="0.6" stop-color="#F1B600"/>
<stop offset="0.666667" stop-color="#EFB200"/>
<stop offset="0.733333" stop-color="#EEAF00"/>
<stop offset="0.8" stop-color="#ECAC00"/>
<stop offset="0.866667" stop-color="#EBAA00"/>
<stop offset="0.933333" stop-color="#EBA900"/>
<stop offset="1" stop-color="#EBA900"/>
</linearGradient>
<linearGradient id="paint5_linear" x1="360.182" y1="100.824" x2="362.794" y2="371.392" gradientUnits="userSpaceOnUse">
<stop stop-color="#FFD000"/>
<stop offset="0.0666667" stop-color="#FFD000"/>
<stop offset="0.133333" stop-color="#FECF00"/>
<stop offset="0.2" stop-color="#FDCD00"/>
<stop offset="0.266667" stop-color="#FCCA00"/>
<stop offset="0.333333" stop-color="#FAC700"/>
<stop offset="0.4" stop-color="#F8C300"/>
<stop offset="0.466667" stop-color="#F6BF00"/>
<stop offset="0.533333" stop-color="#F4BA00"/>
<stop offset="0.6" stop-color="#F1B600"/>
<stop offset="0.666667" stop-color="#EFB200"/>
<stop offset="0.733333" stop-color="#EEAF00"/>
<stop offset="0.8" stop-color="#ECAC00"/>
<stop offset="0.866667" stop-color="#EBAA00"/>
<stop offset="0.933333" stop-color="#EBA900"/>
<stop offset="1" stop-color="#EBA900"/>
</linearGradient>
<linearGradient id="paint6_linear" x1="311.484" y1="0.806519" x2="316.36" y2="370.487" gradientUnits="userSpaceOnUse">
<stop stop-color="#FFD000"/>
<stop offset="0.0666667" stop-color="#FFD000"/>
<stop offset="0.133333" stop-color="#FECF00"/>
<stop offset="0.2" stop-color="#FDCD00"/>
<stop offset="0.266667" stop-color="#FCCA00"/>
<stop offset="0.333333" stop-color="#FAC700"/>
<stop offset="0.4" stop-color="#F8C300"/>
<stop offset="0.466667" stop-color="#F6BF00"/>
<stop offset="0.533333" stop-color="#F4BA00"/>
<stop offset="0.6" stop-color="#F1B600"/>
<stop offset="0.666667" stop-color="#EFB200"/>
<stop offset="0.733333" stop-color="#EEAF00"/>
<stop offset="0.8" stop-color="#ECAC00"/>
<stop offset="0.866667" stop-color="#EBAA00"/>
<stop offset="0.933333" stop-color="#EBA900"/>
<stop offset="1" stop-color="#EBA900"/>
</linearGradient>
<linearGradient id="paint7_linear" x1="24.3943" y1="127.296" x2="29.65" y2="234.581" gradientUnits="userSpaceOnUse">
<stop stop-color="#FFD000"/>
<stop offset="0.0666667" stop-color="#FFD000"/>
<stop offset="0.133333" stop-color="#FECF00"/>
<stop offset="0.2" stop-color="#FDCD00"/>
<stop offset="0.266667" stop-color="#FCCA00"/>
<stop offset="0.333333" stop-color="#FAC700"/>
<stop offset="0.4" stop-color="#F8C300"/>
<stop offset="0.466667" stop-color="#F6BF00"/>
<stop offset="0.533333" stop-color="#F4BA00"/>
<stop offset="0.6" stop-color="#F1B600"/>
<stop offset="0.666667" stop-color="#EFB200"/>
<stop offset="0.733333" stop-color="#EEAF00"/>
<stop offset="0.8" stop-color="#ECAC00"/>
<stop offset="0.866667" stop-color="#EBAA00"/>
<stop offset="0.933333" stop-color="#EBA900"/>
<stop offset="1" stop-color="#EBA900"/>
</linearGradient>
<linearGradient id="paint8_linear" x1="311.484" y1="3.35659e-07" x2="314.096" y2="270.568" gradientUnits="userSpaceOnUse">
<stop stop-color="#FFD000"/>
<stop offset="0.0666667" stop-color="#FFD000"/>
<stop offset="0.133333" stop-color="#FECF00"/>
<stop offset="0.2" stop-color="#FDCD00"/>
<stop offset="0.266667" stop-color="#FCCA00"/>
<stop offset="0.333333" stop-color="#FAC700"/>
<stop offset="0.4" stop-color="#F8C300"/>
<stop offset="0.466667" stop-color="#F6BF00"/>
<stop offset="0.533333" stop-color="#F4BA00"/>
<stop offset="0.6" stop-color="#F1B600"/>
<stop offset="0.666667" stop-color="#EFB200"/>
<stop offset="0.733333" stop-color="#EEAF00"/>
<stop offset="0.8" stop-color="#ECAC00"/>
<stop offset="0.866667" stop-color="#EBAA00"/>
<stop offset="0.933333" stop-color="#EBA900"/>
<stop offset="1" stop-color="#EBA900"/>
</linearGradient>
</defs>
</svg>
