<svg width="805" height="227" viewBox="0 0 805 227" fill="none" xmlns="http://www.w3.org/2000/svg">
<path d="M66 208C66 207.529 66 207.293 66.1337 207.146C66.2674 207 66.4826 207 66.913 207H532.565C532.996 207 533.211 207 533.345 207.146C533.478 207.293 533.478 207.529 533.478 208C533.478 208.471 533.478 208.707 533.345 208.854C533.211 209 532.996 209 532.565 209H66.913C66.4826 209 66.2674 209 66.1337 208.854C66 208.707 66 208.471 66 208Z" fill="url(#paint0_linear)"/>
<path d="M270.522 226C270.522 225.529 270.522 225.293 270.655 225.146C270.789 225 271.004 225 271.435 225H737.087C737.517 225 737.733 225 737.866 225.146C738 225.293 738 225.529 738 226C738 226.471 738 226.707 737.866 226.854C737.733 227 737.517 227 737.087 227H271.435C271.004 227 270.789 227 270.655 226.854C270.522 226.707 270.522 226.471 270.522 226Z" fill="url(#paint1_linear)"/>
<path d="M85.9995 81.0156L713.617 59.1155L715.849 123.077C716.375 138.152 716.638 145.69 712.118 150.537C707.598 155.384 700.061 155.647 684.985 156.173L121.328 175.841C106.252 176.367 98.7142 176.63 93.8673 172.11C89.0205 167.59 88.7574 160.052 88.2314 144.977L85.9995 81.0156Z" fill="url(#paint2_linear)"/>
<path d="M125.498 153.26L127.099 153.204L126.699 141.772L131.116 141.618L131.062 140.098L120.629 140.462L120.682 141.982L125.098 141.828L125.498 153.26ZM137.267 142.871C135.864 142.92 134.767 143.499 134.081 144.486L133.925 139.998L132.486 140.048L132.938 153.001L134.557 152.944L134.378 147.826C134.3 145.578 135.323 144.461 136.933 144.405C138.984 144.333 139.63 146.067 139.694 147.893L139.864 152.759L141.483 152.702L141.295 147.333C141.231 145.489 140.397 142.762 137.267 142.871ZM144.846 148.172L152.293 147.912C152.316 144.454 150.533 142.39 147.61 142.492C144.786 142.591 143.003 144.661 143.114 147.846C143.22 150.886 145.171 152.844 148.04 152.744C149.92 152.678 151.496 151.642 152.2 149.897L150.644 149.42C150.143 150.545 149.192 151.182 147.915 151.226C146.125 151.289 145.042 150.183 144.846 148.172ZM147.714 143.93C149.36 143.872 150.32 144.784 150.584 146.684L144.828 146.885C144.988 145.033 145.969 143.991 147.714 143.93ZM160.12 152.052L161.451 152.006L163.54 144.539L166.146 151.842L167.477 151.795L170.106 141.978L168.523 142.033L166.594 149.215L164.17 142.185L162.757 142.234L160.82 149.416L158.404 142.386L156.812 142.433L160.12 152.052ZM172.743 147.199L180.19 146.939C180.213 143.48 178.43 141.417 175.507 141.519C172.683 141.618 170.9 143.688 171.011 146.872C171.117 149.912 173.068 151.87 175.937 151.77C177.817 151.705 179.393 150.668 180.097 148.923L178.541 148.446C178.04 149.572 177.089 150.208 175.812 150.253C174.022 150.315 172.939 149.209 172.743 147.199ZM175.611 142.956C177.257 142.899 178.217 143.811 178.481 145.711L172.725 145.912C172.885 144.06 173.866 143.017 175.611 142.956ZM186.468 141.137C185.254 141.179 184.306 141.635 183.639 142.388L183.495 138.268L181.885 138.325L182.338 151.277L183.768 151.227L183.729 150.13C184.47 150.959 185.504 151.436 186.817 151.391C189.534 151.296 191.093 149.017 190.991 146.103C190.889 143.189 189.166 141.042 186.468 141.137ZM186.568 149.931C184.607 150 183.672 148.493 183.598 146.361C183.523 144.211 184.37 142.678 186.267 142.611C188.246 142.542 189.22 144.111 189.291 146.162C189.364 148.231 188.484 149.865 186.568 149.931ZM196.671 151.038C199.091 150.953 200.517 149.769 200.452 147.889C200.399 146.387 199.538 145.697 196.951 145.129C194.647 144.633 194.141 144.345 194.116 143.634C194.087 142.807 194.932 142.237 196.193 142.229C197.516 142.219 198.438 142.826 198.636 143.855L200.262 143.501C199.996 141.799 198.355 140.722 196.143 140.799C193.903 140.877 192.449 142.063 192.509 143.771C192.558 145.166 193.4 145.803 195.996 146.396C198.393 146.952 198.77 147.173 198.798 147.992C198.832 148.945 198.043 149.558 196.72 149.604C195.317 149.653 194.287 149.032 193.989 147.979L192.361 148.297C192.758 150.112 194.351 151.119 196.671 151.038ZM202.312 139.134L203.913 139.078L203.855 137.423L202.254 137.479L202.312 139.134ZM202.711 150.566L204.312 150.51L203.973 140.796L202.372 140.852L202.711 150.566ZM209.21 141.937L212.142 141.835L212.096 140.512L209.163 140.615L209.069 137.916L207.468 137.972L207.562 140.671L205.593 140.739L205.639 142.062L207.609 141.993L207.774 146.715C207.809 147.722 207.781 148.462 208.194 149.204C208.914 150.502 210.711 150.638 212.435 150.227L212.387 148.85C211.063 149.104 210.09 149.084 209.631 148.325C209.383 147.929 209.4 147.388 209.372 146.587L209.21 141.937ZM215.027 145.723L222.475 145.464C222.498 142.005 220.715 139.942 217.792 140.044C214.968 140.142 213.185 142.213 213.296 145.397C213.402 148.437 215.353 150.395 218.222 150.295C220.102 150.229 221.678 149.193 222.382 147.448L220.826 146.971C220.324 148.096 219.374 148.733 218.097 148.777C216.307 148.84 215.224 147.734 215.027 145.723ZM217.896 141.481C219.542 141.423 220.501 142.335 220.766 144.235L215.009 144.436C215.17 142.585 216.151 141.542 217.896 141.481ZM232.452 149.798C233.108 149.775 233.754 149.69 234.366 149.434C235.007 149.214 235.676 148.785 236.134 148.229L237.546 149.476L238.551 148.325L236.852 146.862C236.946 146.471 236.988 145.876 236.959 145.021L236.885 142.916L235.419 142.968L235.49 144.757C235.501 145.054 235.503 145.369 235.477 145.667L231.54 142.256C231.187 141.963 230.844 141.677 230.592 141.416C230.152 140.945 229.897 140.594 229.873 139.901C229.845 139.11 230.157 138.513 230.82 138.157C231.192 137.964 231.62 137.859 232.079 137.843C232.637 137.824 233.225 137.92 233.669 138.256C233.928 138.445 234.135 138.699 234.263 139.01L235.814 138.55C235.616 138.026 235.265 137.516 234.801 137.145C234.086 136.53 233.051 136.287 232.026 136.323C231.405 136.345 230.761 136.457 230.158 136.739C228.909 137.314 228.187 138.564 228.236 139.958C228.274 141.065 228.738 141.724 229.606 142.576C229.208 142.788 228.812 143.063 228.52 143.451C227.942 144.183 227.705 145.146 227.747 146.081C227.817 147.06 228.145 147.931 228.826 148.619C229.694 149.489 231.003 149.849 232.452 149.798ZM232.434 148.259C231.543 148.29 230.536 148.064 229.993 147.462C229.628 147.078 229.412 146.563 229.381 145.943C229.352 145.368 229.487 144.841 229.788 144.434C230.046 144.101 230.424 143.844 230.86 143.685L234.935 147.163C234.736 147.386 234.466 147.657 233.909 147.946C233.476 148.178 233.009 148.239 232.434 148.259ZM247.336 149.27C249.755 149.185 251.182 148.001 251.116 146.121C251.064 144.619 250.202 143.929 247.616 143.362C245.311 142.866 244.806 142.577 244.781 141.866C244.752 141.039 245.597 140.469 246.857 140.461C248.18 140.451 249.102 141.058 249.3 142.087L250.927 141.733C250.66 140.031 249.02 138.954 246.807 139.031C244.567 139.109 243.114 140.295 243.174 142.004C243.222 143.398 244.064 144.035 246.66 144.629C249.057 145.184 249.434 145.405 249.463 146.224C249.496 147.177 248.707 147.79 247.385 147.836C245.982 147.885 244.951 147.264 244.653 146.212L243.026 146.53C243.422 148.344 245.015 149.351 247.336 149.27ZM254.22 144.356L261.668 144.096C261.691 140.637 259.908 138.574 256.985 138.676C254.16 138.774 252.378 140.845 252.489 144.029C252.595 147.069 254.546 149.027 257.415 148.927C259.295 148.862 260.871 147.825 261.575 146.08L260.018 145.603C259.517 146.729 258.567 147.365 257.29 147.41C255.5 147.472 254.417 146.366 254.22 144.356ZM257.089 140.113C258.735 140.056 259.694 140.968 259.959 142.868L254.202 143.069C254.363 141.217 255.344 140.174 257.089 140.113ZM267.926 148.56C269.932 148.49 271.364 147.459 271.984 145.618L270.35 145.252C269.948 146.374 269.132 146.996 267.873 147.04C265.939 147.108 264.909 145.703 264.815 143.536C264.759 141.43 265.624 139.896 267.621 139.827C268.799 139.786 269.803 140.408 270.256 141.518L271.822 140.986C271.249 139.259 269.628 138.235 267.586 138.306C264.663 138.408 263.036 140.563 263.115 143.595C263.246 146.571 264.967 148.664 267.926 148.56ZM280.315 138.132L280.493 143.25C280.572 145.499 279.548 146.615 277.938 146.671C275.888 146.743 275.242 145.009 275.178 143.183L275.008 138.317L273.389 138.374L273.576 143.743C273.641 145.587 274.474 148.314 277.605 148.205C279.008 148.156 280.104 147.577 280.79 146.59L280.834 147.84L282.264 147.79L281.925 138.076L280.315 138.132ZM286.721 138.503C286.406 138.748 286.129 139.091 285.927 139.476L285.873 137.938L284.443 137.988L284.782 147.702L286.392 147.646L286.222 142.771C286.182 141.62 286.376 140.469 287.297 139.762C287.954 139.243 288.825 139.168 289.505 139.315L289.453 137.813C288.583 137.654 287.447 137.874 286.721 138.503ZM291.274 136.03L292.875 135.974L292.817 134.319L291.216 134.375L291.274 136.03ZM291.673 147.462L293.274 147.406L292.935 137.692L291.334 137.748L291.673 147.462ZM298.171 138.833L301.103 138.73L301.057 137.408L298.125 137.511L298.031 134.812L296.43 134.868L296.524 137.566L294.554 137.635L294.6 138.957L296.57 138.889L296.735 143.611C296.77 144.618 296.742 145.358 297.155 146.1C297.876 147.398 299.673 147.534 301.396 147.122L301.348 145.746C300.024 145.999 299.051 145.979 298.592 145.221C298.344 144.824 298.361 144.283 298.334 143.483L298.171 138.833ZM309.332 137.119L306.757 144.864L303.458 137.324L301.776 137.383L306.054 146.924L304.605 151.333L306.161 151.279L310.96 137.063L309.332 137.119ZM325.995 136.286C324.718 136.33 323.65 136.971 323.11 137.99C322.552 136.991 321.534 136.442 320.22 136.487C319.06 136.528 318.088 137.057 317.504 137.87L317.468 136.836L316.038 136.885L316.377 146.6L317.987 146.543L317.772 140.373C317.722 138.952 318.534 137.978 319.803 137.934C321.071 137.89 321.939 138.769 321.991 140.244L322.197 146.397L323.789 146.341L323.582 140.17C323.525 138.533 324.534 137.769 325.622 137.731C326.845 137.688 327.739 138.53 327.79 139.979L327.998 146.194L329.599 146.138L329.379 139.572C329.306 137.503 328.019 136.215 325.995 136.286ZM336.01 146.185C338.897 146.084 340.623 143.934 340.517 140.885C340.412 137.881 338.566 135.829 335.652 135.931C332.8 136.03 331.047 138.163 331.153 141.212C331.259 144.225 333.105 146.286 336.01 146.185ZM335.957 144.665C333.996 144.733 332.93 143.347 332.853 141.153C332.779 139.03 333.672 137.522 335.705 137.451C337.693 137.382 338.74 138.759 338.817 140.945C338.891 143.085 337.963 144.595 335.957 144.665ZM346.987 135.553C345.584 135.602 344.487 136.181 343.801 137.168L343.758 135.918L342.319 135.968L342.658 145.683L344.277 145.626L344.098 140.508C344.02 138.26 345.043 137.143 346.653 137.087C348.704 137.015 349.35 138.749 349.414 140.575L349.584 145.441L351.203 145.384L351.015 140.015C350.951 138.171 350.117 135.444 346.987 135.553ZM353.322 133.864L354.923 133.809L354.865 132.154L353.264 132.209L353.322 133.864ZM353.721 145.296L355.322 145.241L354.983 135.527L353.382 135.582L353.721 145.296ZM360.219 136.668L363.151 136.565L363.105 135.243L360.173 135.345L360.079 132.647L358.478 132.703L358.572 135.401L356.602 135.47L356.648 136.792L358.618 136.723L358.783 141.446C358.818 142.453 358.79 143.192 359.203 143.934C359.924 145.233 361.721 145.369 363.445 144.957L363.397 143.581C362.073 143.834 361.099 143.814 360.641 143.056C360.393 142.659 360.41 142.118 360.382 141.318L360.219 136.668ZM369.16 145.028C372.047 144.927 373.773 142.778 373.666 139.729C373.561 136.724 371.716 134.673 368.801 134.774C365.95 134.874 364.197 137.006 364.303 140.055C364.408 143.068 366.254 145.129 369.16 145.028ZM369.107 143.508C367.146 143.576 366.08 142.191 366.003 139.996C365.929 137.873 366.822 136.365 368.855 136.294C370.842 136.225 371.89 137.602 371.966 139.788C372.041 141.929 371.112 143.438 369.107 143.508ZM377.756 135.326C377.44 135.571 377.164 135.914 376.961 136.3L376.908 134.762L375.477 134.811L375.817 144.525L377.427 144.469L377.256 139.594C377.216 138.443 377.41 137.293 378.331 136.585C378.988 136.067 379.859 135.991 380.54 136.139L380.487 134.637C379.617 134.478 378.481 134.698 377.756 135.326ZM382.308 132.853L383.909 132.797L383.851 131.142L382.25 131.198L382.308 132.853ZM382.707 144.285L384.308 144.229L383.969 134.515L382.368 134.571L382.707 144.285ZM391.327 134.006C389.924 134.055 388.828 134.634 388.142 135.621L388.098 134.371L386.659 134.421L386.998 144.135L388.617 144.079L388.438 138.961C388.36 136.712 389.384 135.596 390.994 135.54C393.044 135.468 393.69 137.202 393.754 139.028L393.924 143.894L395.543 143.837L395.355 138.467C395.291 136.624 394.457 133.897 391.327 134.006ZM404.396 133.802L404.434 134.891C403.694 134.061 402.66 133.593 401.337 133.639C398.639 133.733 397.07 135.994 397.172 138.908C397.274 141.823 398.988 143.987 401.705 143.892C402.901 143.851 403.848 143.385 404.515 142.633L404.548 143.568C404.635 145.546 403.78 146.594 401.927 146.658C400.983 146.691 400.006 146.32 399.496 145.383L398.057 146.208C398.917 147.628 400.443 148.259 401.972 148.206C404.293 148.125 405.788 147.109 406.094 145.027C406.167 144.547 406.177 144.069 406.159 143.53L405.817 133.753L404.396 133.802ZM401.851 142.419C399.935 142.486 398.944 140.918 398.872 138.849C398.8 136.798 399.662 135.165 401.64 135.096C403.538 135.03 404.49 136.501 404.565 138.65C404.64 140.782 403.812 142.351 401.851 142.419ZM416.391 133.114C415.068 133.16 414.07 133.699 413.389 134.578L413.351 133.49L411.921 133.54L412.411 147.571L414.021 147.515L413.839 142.298C414.557 143.012 415.535 143.41 416.74 143.368C419.456 143.273 421.016 140.994 420.914 138.08C420.812 135.166 419.089 133.019 416.391 133.114ZM416.491 141.908C414.53 141.977 413.595 140.47 413.52 138.338C413.445 136.188 414.292 134.655 416.19 134.589C418.169 134.519 419.142 136.088 419.214 138.139C419.286 140.208 418.407 141.842 416.491 141.908ZM423.235 142.871L424.836 142.815L424.375 129.593L422.774 129.649L423.235 142.871ZM434.718 134.374C434.116 133.125 432.772 132.542 431.018 132.603C428.823 132.68 427.501 133.762 427.102 135.478L428.638 135.883C428.948 134.684 429.874 134.138 431.052 134.097C432.734 134.038 433.426 134.753 433.525 136.298C432.092 136.546 430.391 136.813 429.188 137.179C427.728 137.662 426.85 138.584 426.904 140.113C426.958 141.678 428.129 142.97 430.306 142.894C431.925 142.838 433.11 142.202 433.842 140.988L433.894 142.499L435.315 142.449L435.106 136.441C435.079 135.676 435.009 134.967 434.718 134.374ZM430.502 141.546C429.117 141.594 428.523 140.849 428.496 140.049C428.464 139.14 429.159 138.675 429.951 138.395C430.886 138.092 432.194 137.893 433.554 137.666C433.561 138.107 433.565 138.728 433.446 139.201C433.254 140.414 432.229 141.485 430.502 141.546ZM439.852 133.889L442.785 133.787L442.738 132.464L439.806 132.567L439.712 129.868L438.111 129.924L438.205 132.623L436.235 132.691L436.282 134.014L438.251 133.945L438.416 138.667C438.452 139.674 438.423 140.414 438.836 141.156C439.557 142.454 441.354 142.59 443.078 142.178L443.03 140.802C441.706 141.056 440.732 141.036 440.274 140.277C440.026 139.881 440.043 139.34 440.015 138.539L439.852 133.889ZM448.574 130.081L449.717 130.042L449.67 128.71L448.438 128.753C447.7 128.779 446.793 128.838 446.153 129.59C445.599 130.239 445.592 131.086 445.619 131.833L445.637 132.363L443.991 132.421L444.037 133.743L445.683 133.685L445.976 142.077L447.577 142.021L447.284 133.63L449.839 133.54L449.793 132.218L447.238 132.307L447.211 131.525C447.178 130.598 447.621 130.115 448.574 130.081ZM455.363 142.02C458.25 141.919 459.976 139.77 459.87 136.721C459.765 133.716 457.919 131.665 455.005 131.766C452.154 131.866 450.4 133.998 450.506 137.047C450.612 140.06 452.458 142.121 455.363 142.02ZM455.31 140.5C453.349 140.568 452.283 139.183 452.206 136.988C452.132 134.865 453.025 133.357 455.058 133.286C457.046 133.217 458.093 134.594 458.17 136.78C458.245 138.921 457.316 140.43 455.31 140.5ZM463.959 132.318C463.644 132.563 463.367 132.906 463.165 133.292L463.111 131.754L461.681 131.803L462.02 141.517L463.63 141.461L463.46 136.586C463.42 135.435 463.614 134.285 464.534 133.577C465.192 133.059 466.063 132.983 466.743 133.131L466.691 131.629C465.821 131.47 464.685 131.69 463.959 132.318ZM478.34 130.97C477.062 131.015 475.995 131.655 475.454 132.674C474.897 131.675 473.878 131.126 472.565 131.171C471.405 131.212 470.433 131.741 469.849 132.554L469.813 131.52L468.383 131.57L468.722 141.284L470.332 141.227L470.116 135.057C470.067 133.636 470.879 132.662 472.147 132.618C473.416 132.574 474.284 133.453 474.335 134.928L474.541 141.081L476.133 141.025L475.927 134.854C475.87 133.217 476.879 132.453 477.967 132.415C479.19 132.372 480.084 133.215 480.135 134.663L480.343 140.878L481.944 140.822L481.723 134.256C481.651 132.187 480.363 130.899 478.34 130.97ZM494.124 130.671L491.548 138.416L488.25 130.876L486.568 130.935L490.846 140.476L489.397 144.885L490.953 144.831L495.752 130.615L494.124 130.671ZM501.372 140.415C504.259 140.314 505.985 138.164 505.879 135.115C505.774 132.111 503.928 130.059 501.014 130.161C498.163 130.26 496.409 132.393 496.516 135.442C496.621 138.455 498.467 140.516 501.372 140.415ZM501.319 138.894C499.358 138.963 498.292 137.577 498.216 135.383C498.141 133.26 499.034 131.752 501.067 131.681C503.055 131.611 504.103 132.989 504.179 135.174C504.254 137.315 503.325 138.824 501.319 138.894ZM514.436 129.963L514.615 135.08C514.693 137.329 513.669 138.445 512.059 138.502C510.009 138.573 509.363 136.84 509.299 135.014L509.129 130.148L507.51 130.204L507.698 135.574C507.762 137.418 508.596 140.144 511.726 140.035C513.129 139.986 514.225 139.408 514.911 138.42L514.955 139.67L516.385 139.62L516.046 129.906L514.436 129.963ZM518.682 130.625C519.805 130.793 520.428 130.078 520.384 128.818L520.304 126.516L518.541 126.577L518.612 128.61L519.538 128.578C519.627 129.295 519.504 129.903 518.755 129.875L518.682 130.625ZM525.887 139.289L527.524 139.232L530.71 129.395L529.082 129.452L526.634 137.219L523.64 129.641L522.021 129.698L525.887 139.289ZM533.349 134.616L540.797 134.356C540.82 130.897 539.037 128.834 536.114 128.936C533.289 129.035 531.507 131.105 531.618 134.289C531.724 137.329 533.675 139.287 536.544 139.187C538.424 139.122 539.999 138.085 540.704 136.34L539.147 135.863C538.646 136.989 537.696 137.625 536.419 137.67C534.629 137.732 533.546 136.626 533.349 134.616ZM536.218 130.373C537.864 130.316 538.823 131.228 539.088 133.128L533.331 133.329C533.492 131.477 534.473 130.434 536.218 130.373ZM550.676 128.428C549.462 128.47 548.514 128.927 547.847 129.679L547.703 125.56L546.093 125.616L546.546 138.568L547.976 138.518L547.937 137.421C548.678 138.251 549.712 138.728 551.025 138.682C553.742 138.587 555.301 136.308 555.199 133.394C555.097 130.48 553.374 128.334 550.676 128.428ZM550.776 137.223C548.815 137.291 547.88 135.784 547.806 133.652C547.731 131.502 548.578 129.969 550.475 129.903C552.454 129.834 553.428 131.403 553.499 133.453C553.572 135.522 552.692 137.156 550.776 137.223ZM558.365 133.743L565.813 133.483C565.836 130.024 564.053 127.961 561.13 128.063C558.305 128.162 556.523 130.232 556.634 133.416C556.74 136.456 558.691 138.414 561.56 138.314C563.44 138.249 565.015 137.212 565.72 135.468L564.163 134.99C563.662 136.116 562.712 136.752 561.435 136.797C559.645 136.859 558.562 135.753 558.365 133.743ZM561.234 129.5C562.88 129.443 563.839 130.355 564.104 132.255L558.347 132.456C558.508 130.604 559.489 129.561 561.234 129.5ZM568.994 133.372L576.441 133.112C576.464 129.653 574.681 127.59 571.758 127.692C568.934 127.791 567.151 129.861 567.262 133.045C567.368 136.085 569.319 138.044 572.188 137.943C574.068 137.878 575.644 136.841 576.348 135.097L574.792 134.62C574.291 135.745 573.34 136.381 572.063 136.426C570.273 136.488 569.19 135.382 568.994 133.372ZM571.862 129.129C573.508 129.072 574.468 129.984 574.732 131.884L568.976 132.085C569.136 130.233 570.117 129.19 571.862 129.129ZM582.654 127.33C581.251 127.379 580.154 127.958 579.469 128.945L579.425 127.695L577.986 127.745L578.325 137.459L579.944 137.403L579.765 132.285C579.687 130.036 580.71 128.92 582.32 128.864C584.371 128.792 585.017 130.526 585.081 132.351L585.251 137.217L586.87 137.161L586.682 131.791C586.618 129.947 585.784 127.221 582.654 127.33ZM594.878 136.882L596.21 136.835L598.299 129.369L600.905 136.671L602.236 136.625L604.865 126.807L603.282 126.862L601.353 134.044L598.928 127.014L597.516 127.064L595.579 134.246L593.163 127.215L591.571 127.262L594.878 136.882ZM613.467 128.137C612.865 126.888 611.521 126.305 609.767 126.366C607.572 126.443 606.25 127.524 605.851 129.24L607.387 129.646C607.696 128.446 608.623 127.901 609.801 127.86C611.483 127.801 612.174 128.515 612.273 130.061C610.841 130.309 609.139 130.575 607.936 130.942C606.476 131.425 605.599 132.347 605.652 133.876C605.707 135.441 606.878 136.733 609.055 136.657C610.674 136.601 611.858 135.965 612.59 134.751L612.643 136.262L614.064 136.212L613.854 130.204C613.828 129.439 613.758 128.73 613.467 128.137ZM609.251 135.308C607.865 135.357 607.272 134.612 607.244 133.811C607.212 132.903 607.908 132.437 608.699 132.158C609.634 131.855 610.942 131.656 612.303 131.429C612.309 131.87 612.313 132.491 612.195 132.963C612.003 134.177 610.978 135.248 609.251 135.308ZM616.183 124.692L617.784 124.636L617.726 122.981L616.125 123.037L616.183 124.692ZM616.583 136.124L618.184 136.068L617.844 126.354L616.243 126.41L616.583 136.124ZM623.081 127.495L626.013 127.393L625.967 126.071L623.035 126.173L622.94 123.475L621.339 123.531L621.434 126.229L619.464 126.298L619.51 127.62L621.48 127.551L621.645 132.273C621.68 133.281 621.652 134.02 622.065 134.762C622.786 136.061 624.582 136.196 626.306 135.785L626.258 134.409C624.934 134.662 623.961 134.642 623.502 133.884C623.254 133.487 623.271 132.946 623.243 132.145L623.081 127.495ZM628.059 124.278L629.66 124.222L629.602 122.567L628.001 122.623L628.059 124.278ZM628.458 135.71L630.059 135.654L629.72 125.94L628.119 125.996L628.458 135.71ZM637.078 125.431C635.675 125.48 634.578 126.058 633.892 127.046L633.849 125.796L632.41 125.846L632.749 135.56L634.368 135.504L634.189 130.386C634.111 128.137 635.134 127.021 636.744 126.965C638.795 126.893 639.441 128.626 639.505 130.452L639.675 135.318L641.294 135.262L641.106 129.892C641.042 128.048 640.208 125.322 637.078 125.431ZM650.147 125.227L650.185 126.315C649.444 125.486 648.41 125.018 647.088 125.064C644.39 125.158 642.821 127.419 642.923 130.333C643.024 133.247 644.739 135.412 647.455 135.317C648.652 135.275 649.599 134.81 650.266 134.057L650.299 134.993C650.386 136.971 649.531 138.018 647.678 138.083C646.734 138.116 645.757 137.745 645.247 136.808L643.808 137.633C644.668 139.053 646.194 139.684 647.723 139.63C650.044 139.549 651.539 138.534 651.845 136.452C651.918 135.972 651.928 135.494 651.909 134.955L651.568 125.177L650.147 125.227ZM647.602 133.844C645.686 133.911 644.695 132.343 644.623 130.274C644.551 128.223 645.412 126.59 647.391 126.521C649.289 126.455 650.241 127.925 650.316 130.075C650.391 132.207 649.563 133.776 647.602 133.844ZM661.544 122.65L662.686 122.61L662.64 121.279L661.408 121.322C660.67 121.348 659.763 121.406 659.123 122.158C658.569 122.808 658.562 123.655 658.589 124.401L658.607 124.932L656.961 124.989L657.007 126.311L658.653 126.254L658.946 134.646L660.547 134.59L660.254 126.198L662.809 126.109L662.763 124.787L660.208 124.876L660.181 124.093C660.148 123.167 660.591 122.683 661.544 122.65ZM668.333 134.589C671.22 134.488 672.946 132.338 672.84 129.289C672.735 126.285 670.889 124.233 667.975 124.335C665.124 124.434 663.37 126.567 663.476 129.616C663.582 132.629 665.428 134.69 668.333 134.589ZM668.28 133.068C666.319 133.137 665.253 131.751 665.176 129.557C665.102 127.434 665.995 125.926 668.028 125.855C670.016 125.786 671.063 127.163 671.14 129.348C671.215 131.489 670.286 132.999 668.28 133.068ZM676.929 124.887C676.613 125.132 676.337 125.475 676.135 125.86L676.081 124.322L674.651 124.372L674.99 134.086L676.6 134.03L676.43 129.155C676.39 128.004 676.584 126.853 677.504 126.146C678.162 125.627 679.033 125.552 679.713 125.699L679.661 124.197C678.791 124.038 677.655 124.258 676.929 124.887ZM680.548 133.892L682.311 133.831L682.249 132.068L680.487 132.129L680.548 133.892Z" fill="white"/>
<path d="M3.34778 123.84L54.7644 161.027C60.5309 165.198 63.4141 167.283 65.6171 166.109C67.8201 164.935 67.696 161.378 67.4478 154.266L66.2048 118.645L3.34778 123.84Z" fill="url(#paint3_linear)"/>
<path d="M3.34778 123.84L54.7644 161.027C60.5309 165.198 63.4141 167.283 65.6171 166.109C67.8201 164.935 67.696 161.378 67.4478 154.266L66.2048 118.645L3.34778 123.84Z" fill="black" fill-opacity="0.32"/>
<path d="M1.11654 59.8789C0.590483 44.8032 0.327455 37.2653 4.84747 32.4184C9.36749 27.5715 16.9054 27.3085 31.9811 26.7825L767.533 1.11605C782.609 0.589993 790.147 0.326965 794.994 4.84698C799.841 9.367 800.104 16.9049 800.63 31.9807L801.746 63.9612C802.272 79.037 802.535 86.5748 798.015 91.4217C793.495 96.2686 785.957 96.5316 770.881 97.0577L3.3484 123.84L1.11654 59.8789Z" fill="#C4C4C4"/>
<path d="M1.11654 59.8789C0.590483 44.8032 0.327455 37.2653 4.84747 32.4184C9.36749 27.5715 16.9054 27.3085 31.9811 26.7825L767.533 1.11605C782.609 0.589993 790.147 0.326965 794.994 4.84698C799.841 9.367 800.104 16.9049 800.63 31.9807L801.746 63.9612C802.272 79.037 802.535 86.5748 798.015 91.4217C793.495 96.2686 785.957 96.5316 770.881 97.0577L3.3484 123.84L1.11654 59.8789Z" fill="url(#paint4_linear)"/>
<path d="M61.2909 88.7981L66.7275 88.6083L66.2696 75.4963L78.2006 88.208L85.0764 87.9681L71.7745 73.8234L83.3115 59.2121L76.6755 59.4437L66.1858 73.0978L65.7222 59.8259L60.2855 60.0156L61.2909 88.7981ZM90.6089 78.4894L105.76 77.9607C106.146 70.1025 102.011 65.1637 95.2148 65.4008C88.8187 65.624 84.462 70.3788 84.7091 77.4545C84.9353 83.9305 89.6945 88.4073 96.3305 88.1757C100.488 88.0307 104.206 85.6195 105.707 81.6048L100.216 80.2354C99.4776 82.0223 97.9521 83.0361 95.8333 83.11C92.8951 83.2125 91.1161 81.5536 90.6089 78.4894ZM95.6194 70.1096C98.2378 70.0182 99.6403 71.21 100.122 74.115L90.6077 74.447C91.0718 71.6891 92.7012 70.2114 95.6194 70.1096ZM114.93 77.6407L130.081 77.112C130.467 69.2538 126.332 64.315 119.536 64.5521C113.14 64.7753 108.783 69.5301 109.03 76.6058C109.256 83.0819 114.016 87.5586 120.652 87.3271C124.809 87.182 128.527 84.7709 130.028 80.7561L124.537 79.3868C123.799 81.1736 122.273 82.1874 120.154 82.2613C117.216 82.3639 115.437 80.7049 114.93 77.6407ZM119.941 69.2609C122.559 69.1695 123.961 70.3613 124.443 73.2663L114.929 73.5983C115.393 70.8404 117.022 69.3627 119.941 69.2609ZM143.871 63.703C141.632 63.7811 139.797 64.5056 138.377 65.6958L138.335 64.4965L133.538 64.6639L134.627 95.8449L140.104 95.6538L139.742 85.2801C141.172 86.1107 142.908 86.5505 144.947 86.4793C150.903 86.2715 154.729 81.215 154.503 74.7389C154.272 68.143 150.067 63.4868 143.871 63.703ZM143.898 81.673C140.261 81.7999 138.849 79.2075 138.712 75.2899C138.576 71.3723 139.843 68.6865 143.241 68.5679C146.878 68.441 148.621 71.342 148.746 74.9398C148.873 78.5776 147.416 81.5502 143.898 81.673ZM176.816 85.3673C181.813 85.1929 185.282 82.5103 186.36 77.8699L180.763 76.9045C180.196 79.0055 179.077 80.2053 176.639 80.2904C173.361 80.4048 171.593 77.9049 171.461 74.1472C171.336 70.5494 172.76 67.778 176.198 67.6581C178.196 67.5883 179.961 68.8475 180.679 71.0639L186.066 69.435C184.951 65.0312 181.177 62.4012 176.1 62.5784C169.504 62.8085 165.476 67.7921 165.705 74.3481C165.931 80.8241 170.1 85.6016 176.816 85.3673ZM206.788 65.4299C205.169 62.6047 202.014 61.6741 198.216 61.8067C193.02 61.988 190.148 64.5697 189.193 68.1652L194.164 69.5527C194.776 67.5702 196.791 66.8194 198.39 66.7636C200.948 66.6744 202.159 67.5526 202.45 69.5637C198.413 70.305 195.331 70.8728 193.279 71.7049C189.846 73.1054 188.685 75.3873 188.789 78.3855C188.915 81.9833 191.577 84.8522 196.214 84.6904C199.532 84.5746 201.617 83.5413 203.456 81.1957L203.549 83.8341L208.306 83.6681L207.845 70.4762C207.777 68.5173 207.683 66.9997 206.788 65.4299ZM202.12 77.3199C201.713 78.2547 200.222 80.2679 197.224 80.3726C195.345 80.4381 194.155 79.5991 194.103 78.12C194.066 77.0407 194.679 76.2588 196.255 75.5634C197.479 75.0604 198.947 74.709 202.563 73.9625C202.58 75.0025 202.547 76.3645 202.12 77.3199ZM213.903 83.4728L219.339 83.2831L218.313 53.901L212.876 54.0907L213.903 83.4728ZM248.505 60.1319C245.727 60.2289 243.353 61.5925 242.026 63.72C240.836 61.7403 238.731 60.473 235.633 60.5811C233.034 60.6718 230.794 61.8506 229.417 63.6797L229.335 61.3212L224.538 61.4886L225.292 83.0754L230.768 82.8843L230.312 69.8123C230.225 67.3338 231.644 65.5632 233.923 65.4837C236.281 65.4014 237.779 67.0302 237.878 69.8684L238.324 82.6207L243.76 82.431L243.304 69.3589C243.217 66.8804 244.636 65.1099 246.915 65.0304C249.273 64.9481 250.771 66.5768 250.87 69.4151L251.316 82.1673L256.753 81.9776L256.257 67.7863C256.092 63.0691 253.422 59.9604 248.505 60.1319ZM261.739 87.2069C265.437 87.6782 267.121 85.4581 266.987 81.6205L266.797 76.1838L261.36 76.3735L261.55 81.8102L264.349 81.7125C264.695 83.6216 263.903 85.0101 261.979 84.9171L261.739 87.2069ZM287.199 80.9152L291.356 80.7701L295.582 66.5341L300.79 80.4409L304.948 80.2959L310.79 58.4789L305.473 58.6644L302.005 71.6733L297.578 58.9399L293.061 59.0975L289.533 72.1085L285.165 59.373L279.847 59.5186L287.199 80.9152ZM318.712 70.5299L333.863 70.0013C334.249 62.143 330.114 57.2042 323.318 57.4413C316.922 57.6645 312.565 62.4194 312.812 69.495C313.039 75.9711 317.798 80.4478 324.434 80.2163C328.591 80.0712 332.309 77.6601 333.81 73.6453L328.319 72.276C327.581 74.0628 326.055 75.0766 323.937 75.1505C320.998 75.2531 319.219 73.5941 318.712 70.5299ZM323.723 62.1501C326.341 62.0587 327.744 63.2506 328.225 66.1555L318.711 66.4875C319.175 63.7297 320.805 62.2519 323.723 62.1501ZM363.294 59.9688C361.675 57.1436 358.52 56.213 354.723 56.3455C349.526 56.5269 346.654 59.1086 345.699 62.7041L350.671 64.0915C351.282 62.109 353.297 61.3583 354.896 61.3025C357.454 61.2132 358.666 62.0915 358.956 64.1026C354.92 64.8438 351.837 65.4116 349.785 66.2437C346.352 67.6443 345.191 69.9262 345.296 72.9243C345.421 76.5221 348.083 79.3911 352.72 79.2293C356.038 79.1135 358.124 78.0801 359.963 75.7346L360.055 78.373L364.812 78.207L364.351 65.015C364.283 63.0562 364.19 61.5385 363.294 59.9688ZM358.627 71.8588C358.219 72.7936 356.728 74.8068 353.73 74.9114C351.851 74.977 350.661 74.138 350.61 72.6589C350.572 71.5795 351.185 70.7977 352.762 70.1023C353.985 69.5993 355.454 69.2479 359.07 68.5013C359.086 69.5414 359.054 70.9033 358.627 71.8588ZM376.407 57.2299C375.428 57.8444 374.698 58.7304 374.174 59.7493L374.052 56.2714L369.255 56.4388L370.009 78.0256L375.486 77.8345L375.1 66.8012C375.014 64.3228 375.992 62.5276 377.88 61.5811C379.138 60.9369 380.893 60.7556 382.105 61.0735L381.927 55.9966C379.96 55.8251 377.933 56.216 376.407 57.2299ZM390.426 68.0275L405.577 67.4989C405.963 59.6406 401.828 54.7018 395.032 54.9389C388.636 55.1621 384.279 59.917 384.527 66.9926C384.753 73.4687 389.512 77.9454 396.148 77.7139C400.305 77.5688 404.024 75.1577 405.524 71.1429L400.033 69.7736C399.295 71.5604 397.77 72.5742 395.651 72.6481C392.713 72.7507 390.934 71.0917 390.426 68.0275ZM395.437 59.6477C398.055 59.5563 399.458 60.7482 399.939 63.6531L390.425 63.9851C390.889 61.2273 392.519 59.7495 395.437 59.6477ZM429.434 53.6985C426.336 53.8066 424.036 55.0075 422.538 56.8009L422.209 47.3866L417.372 47.5554L418.377 76.3379L423.894 76.1454L423.511 65.192C423.324 59.8353 426.015 58.9409 427.893 58.8754C432.531 58.7136 432.704 63.6705 432.772 65.6294L433.128 75.8231L438.645 75.6306L438.222 63.518C438.159 61.7191 437.869 53.4042 429.434 53.6985ZM448.165 66.0128L463.315 65.4841C463.701 57.6259 459.566 52.6871 452.771 52.9242C446.374 53.1474 442.018 57.9022 442.265 64.9779C442.491 71.454 447.25 75.9307 453.886 75.6992C458.044 75.5541 461.762 73.143 463.263 69.1282L457.771 67.7589C457.033 69.5457 455.508 70.5595 453.389 70.6334C450.451 70.736 448.672 69.077 448.165 66.0128ZM453.175 57.633C455.794 57.5416 457.196 58.7334 457.678 61.6384L448.164 61.9704C448.628 59.2125 450.257 57.7348 453.175 57.633ZM474.551 53.8052C473.571 54.4198 472.842 55.3057 472.317 56.3247L472.196 52.8468L467.399 53.0142L468.153 74.601L473.629 74.4099L473.244 63.3766C473.157 60.8981 474.135 59.1029 476.023 58.1565C477.282 57.5122 479.036 57.3309 480.248 57.6489L480.071 52.572C478.104 52.4005 476.076 52.7914 474.551 53.8052ZM488.57 64.6029L503.721 64.0742C504.106 56.216 499.972 51.2772 493.176 51.5143C486.78 51.7375 482.423 56.4923 482.67 63.568C482.896 70.0441 487.655 74.5208 494.291 74.2893C498.449 74.1442 502.167 71.7331 503.668 67.7183L498.177 66.349C497.438 68.1358 495.913 69.1496 493.794 69.2235C490.856 69.3261 489.077 67.6671 488.57 64.6029ZM493.58 56.2231C496.199 56.1317 497.601 57.3235 498.083 60.2285L488.569 60.5605C489.033 57.8026 490.662 56.3249 493.58 56.2231ZM522.669 55.2881L528.905 55.0705L528.759 50.8731L522.523 51.0907L522.313 45.0943L516.876 45.284L517.086 51.2804L513.408 51.4087L513.555 55.6061L517.232 55.4778L517.52 63.7128C517.611 66.3112 517.478 68.237 518.626 70.1582C520.495 73.2548 525.065 73.4556 529.513 72.4599L529.355 67.9426C526.809 68.3917 524.533 68.5512 523.521 67.0656C522.973 66.2842 523.004 64.8823 522.946 63.2033L522.669 55.2881ZM542.848 72.5949C549.324 72.369 553.638 67.5356 553.403 60.8197C553.17 54.1437 548.568 49.5815 542.052 49.8088C535.656 50.032 531.301 54.8268 531.537 61.5827C531.77 68.2586 536.332 72.8223 542.848 72.5949ZM542.671 67.518C539.273 67.6366 537.429 65.2595 537.293 61.3818C537.162 57.6241 538.672 55.0099 542.229 54.8857C545.667 54.7658 547.513 57.1829 547.647 61.0205C547.777 64.7383 546.149 67.3967 542.671 67.518ZM577.195 48.5425C574.097 48.6506 571.798 49.8515 570.299 51.6449L569.971 42.2306L565.134 42.3994L566.139 71.1819L571.656 70.9894L571.273 60.036C571.086 54.6793 573.776 53.7849 575.655 53.7194C580.292 53.5576 580.465 58.5145 580.534 60.4733L580.89 70.6671L586.407 70.4746L585.983 58.362C585.921 56.5631 585.63 48.2482 577.195 48.5425ZM595.926 60.8568L611.077 60.3281C611.463 52.4699 607.328 47.5311 600.532 47.7682C594.136 47.9914 589.779 52.7462 590.027 59.8219C590.253 66.298 595.012 70.7747 601.648 70.5432C605.805 70.3981 609.523 67.987 611.024 63.9722L605.533 62.6029C604.795 64.3897 603.269 65.4035 601.151 65.4774C598.213 65.5799 596.434 63.921 595.926 60.8568ZM600.937 52.477C603.555 52.3856 604.958 53.5774 605.439 56.4824L595.925 56.8144C596.389 54.0565 598.019 52.5788 600.937 52.477ZM616.314 69.431L621.751 69.2413L620.724 39.8593L615.288 40.049L616.314 69.431ZM637.282 46.4859C635.043 46.564 633.207 47.2885 631.788 48.4787L631.746 47.2794L626.949 47.4468L628.038 78.6278L633.515 78.4367L633.152 68.063C634.582 68.8936 636.319 69.3334 638.357 69.2622C644.314 69.0544 648.14 63.9979 647.913 57.5218C647.683 50.9259 643.478 46.2697 637.282 46.4859ZM637.309 64.4559C633.671 64.5828 632.26 61.9904 632.123 58.0728C631.986 54.1552 633.253 51.4694 636.651 51.3508C640.289 51.2239 642.031 54.1249 642.157 57.7227C642.284 61.3605 640.827 64.3331 637.309 64.4559ZM674.489 45.7879L669.365 60.6757L663.176 46.1827L657.539 46.3794L667.002 67.4822L663.785 77.3804L668.822 77.2047L679.925 45.5982L674.489 45.7879ZM692.445 67.3749C698.921 67.1489 703.234 62.3156 703 55.5996C702.767 48.9237 698.165 44.3614 691.649 44.5888C685.252 44.812 680.897 49.6068 681.133 56.3627C681.366 63.0386 685.928 67.6023 692.445 67.3749ZM692.267 62.298C688.869 62.4166 687.025 60.0394 686.89 56.1618C686.758 52.4041 688.268 49.7899 691.826 49.6657C695.264 49.5457 697.109 51.9629 697.243 55.8005C697.373 59.5182 695.745 62.1766 692.267 62.298ZM721.37 44.1521L721.752 55.1054C721.939 60.4621 719.249 61.3565 717.37 61.4221C712.733 61.5839 712.56 56.6269 712.491 54.6681L712.135 44.4743L706.619 44.6668L707.042 56.7794C707.104 58.5783 707.395 66.8932 715.83 66.5989C718.928 66.4908 721.227 65.2899 722.726 63.4966L722.803 65.7152L727.6 65.5478L726.846 43.961L721.37 44.1521ZM734.934 58.0875L740.371 57.8978L739.617 36.311L734.18 36.5007L734.934 58.0875ZM735.185 65.2831L740.622 65.0934L740.454 60.2964L735.018 60.4861L735.185 65.2831Z" fill="#34332D"/>
<defs>
<linearGradient id="paint0_linear" x1="402" y1="207" x2="402" y2="227" gradientUnits="userSpaceOnUse">
<stop stop-color="#525047"/>
<stop offset="1" stop-color="#34332D"/>
</linearGradient>
<linearGradient id="paint1_linear" x1="402" y1="207" x2="402" y2="227" gradientUnits="userSpaceOnUse">
<stop stop-color="#525047"/>
<stop offset="1" stop-color="#34332D"/>
</linearGradient>
<linearGradient id="paint2_linear" x1="401.065" y1="59.1155" x2="401.065" y2="176.122" gradientUnits="userSpaceOnUse">
<stop stop-color="#525047"/>
<stop offset="1" stop-color="#34332D"/>
</linearGradient>
<linearGradient id="paint3_linear" x1="34.724" y1="119.743" x2="42.568" y2="227.171" gradientUnits="userSpaceOnUse">
<stop stop-color="#FFD000"/>
<stop offset="0.0666667" stop-color="#FFD000"/>
<stop offset="0.133333" stop-color="#FECF00"/>
<stop offset="0.2" stop-color="#FDCD00"/>
<stop offset="0.266667" stop-color="#FCCA00"/>
<stop offset="0.333333" stop-color="#FAC700"/>
<stop offset="0.4" stop-color="#F8C300"/>
<stop offset="0.466667" stop-color="#F6BF00"/>
<stop offset="0.533333" stop-color="#F4BA00"/>
<stop offset="0.6" stop-color="#F1B600"/>
<stop offset="0.666667" stop-color="#EFB200"/>
<stop offset="0.733333" stop-color="#EEAF00"/>
<stop offset="0.8" stop-color="#ECAC00"/>
<stop offset="0.866667" stop-color="#EBAA00"/>
<stop offset="0.933333" stop-color="#EBA900"/>
<stop offset="1" stop-color="#EBA900"/>
</linearGradient>
<linearGradient id="paint4_linear" x1="399.757" y1="13.9493" x2="407.796" y2="212.784" gradientUnits="userSpaceOnUse">
<stop stop-color="#FFD000"/>
<stop offset="0.0666667" stop-color="#FFD000"/>
<stop offset="0.133333" stop-color="#FECF00"/>
<stop offset="0.2" stop-color="#FDCD00"/>
<stop offset="0.266667" stop-color="#FCCA00"/>
<stop offset="0.333333" stop-color="#FAC700"/>
<stop offset="0.4" stop-color="#F8C300"/>
<stop offset="0.466667" stop-color="#F6BF00"/>
<stop offset="0.533333" stop-color="#F4BA00"/>
<stop offset="0.6" stop-color="#F1B600"/>
<stop offset="0.666667" stop-color="#EFB200"/>
<stop offset="0.733333" stop-color="#EEAF00"/>
<stop offset="0.8" stop-color="#ECAC00"/>
<stop offset="0.866667" stop-color="#EBAA00"/>
<stop offset="0.933333" stop-color="#EBA900"/>
<stop offset="1" stop-color="#EBA900"/>
</linearGradient>
</defs>
</svg>
