<svg width="111" height="134" viewBox="0 0 111 134" fill="none" xmlns="http://www.w3.org/2000/svg">
<path d="M64.5063 41.9214C49.201 39.3486 26.541 67.1464 22.6238 85.5381C18.7414 103.766 30.6417 121.592 49.1502 125.272C67.6587 128.951 85.8767 117.114 89.7591 98.886C93.6763 80.4943 79.8116 44.4941 64.5063 41.9214Z" fill="url(#paint0_linear)"/>
<path fill-rule="evenodd" clip-rule="evenodd" d="M41.928 58.1604C34.1306 66.788 27.877 77.7985 26.0836 86.2185C22.6013 102.569 33.2815 118.566 49.8829 121.867C66.4786 125.167 82.8181 114.55 86.2993 98.2056C88.0511 89.9807 85.8341 77.141 81.0723 65.8245C78.7192 60.2322 75.8361 55.2395 72.7281 51.5511C69.5578 47.7887 66.4984 45.7855 63.878 45.345C61.223 44.8987 57.8207 45.7233 53.84 48.0465C49.9116 50.3392 45.7994 53.8767 41.928 58.1604ZM22.6238 85.5381C26.541 67.1464 49.201 39.3486 64.5063 41.9214C79.8116 44.4941 93.6763 80.4943 89.7591 98.886C85.8767 117.114 67.6587 128.951 49.1502 125.272C30.6417 121.592 18.7414 103.766 22.6238 85.5381Z" fill="#2D3433"/>
<path d="M56.3253 112.051C56.1164 113.314 53.5976 113.99 50.6994 113.56C47.8012 113.13 45.6211 111.758 45.83 110.495C46.0389 109.232 48.366 110.698 51.2642 111.127C54.1625 111.557 56.5342 110.788 56.3253 112.051Z" fill="#2D3433"/>
<ellipse rx="3.66178" ry="3.57913" transform="matrix(0.943614 -0.331047 0.335082 0.942189 68.5872 97.6423)" fill="#2D3433"/>
<ellipse rx="3.71707" ry="3.63318" transform="matrix(0.943614 -0.331047 0.335082 0.942189 38.7747 92.2121)" fill="#2D3433"/>
<mask id="mask0" mask-type="alpha" maskUnits="userSpaceOnUse" x="11" y="37" width="88" height="97">
<path d="M64.2742 41.8592C48.9689 39.2864 26.5411 67.1465 22.624 85.5382C18.7416 103.767 30.6418 121.592 49.1503 125.272C67.6589 128.952 85.8768 117.114 89.7592 98.8861C93.6764 80.4944 79.5795 44.432 64.2742 41.8592Z" fill="url(#paint1_linear)"/>
</mask>
<g mask="url(#mask0)">
<path fill-rule="evenodd" clip-rule="evenodd" d="M76.1376 40.6531C88.3141 40.4058 98.8352 46.7237 109.685 61.9523L106.972 63.8223C112.941 66.9374 118.169 71.248 122.274 77.01L117.368 80.392C113.862 75.4711 109.337 71.7154 104.06 68.9662L102.81 70.4022C100.876 68.7924 98.9532 67.3359 97.0418 66.026C88.5002 63.2088 78.6006 62.3877 68.1724 63.0708C57.8691 63.7458 47.2681 65.8839 37.3573 68.863C46.2483 67.4301 55.532 67.0837 64.5728 67.9707C84.2022 69.8964 103.176 77.7003 114.392 93.4418L109.486 96.8238C99.5758 82.9141 82.4847 75.6105 63.9136 73.7885C53.9613 72.8121 43.7245 73.4283 34.1731 75.3785C59.2067 71.3617 84.9529 81.1644 101.738 104.724L96.8321 108.106C76.571 79.6673 42.5182 73.1548 14.1853 88.2331L11.3816 83.1022C11.3998 83.0925 11.4181 83.0828 11.4363 83.0731L8.74065 78.14C9.10656 77.9453 9.47549 77.753 9.84735 77.5631L8.13711 74.4333C15.053 70.7528 23.2768 67.2571 32.1455 64.3754C34.6287 62.5574 37.1431 60.8944 39.6876 59.4025L37.2941 55.0223C44.7022 51.0798 51.5048 47.5593 57.8385 45.0026C64.1757 42.4444 70.2254 40.7732 76.1376 40.6531ZM55.5199 58.659C58.2822 57.8045 61.0524 57.2019 63.8286 56.8653C67.5654 56.4123 71.3571 56.4361 75.202 56.9989C72.7593 56.9933 70.3005 57.0758 67.8396 57.237C63.7527 57.5047 59.6282 57.9903 55.5199 58.659ZM99.8001 60.7512C87.5333 52.5472 75.2613 49.5958 63.1601 51.0628C60.1777 51.4244 57.227 52.0518 54.3096 52.9234C56.2854 51.9996 58.1987 51.1563 60.0597 50.4051C66.0533 47.9856 71.3226 46.5978 76.1956 46.4988C84.7084 46.3259 92.8274 50.0903 101.922 61.5315C101.223 61.2578 100.515 60.9978 99.8001 60.7512Z" fill="#2D3433"/>
</g>
<path d="M60.3552 58.4218C62.5369 54.5699 55.147 38.9778 47.7782 34.7262C40.4749 30.5124 30.974 32.9477 26.6002 40.1546C22.2264 47.3616 24.61 56.6539 31.9133 60.8678C39.282 65.1194 58.1736 62.2736 60.3552 58.4218Z" fill="url(#paint2_linear)"/>
<path d="M60.3552 58.4218C62.5369 54.5699 55.147 38.9778 47.7782 34.7262C40.4749 30.5124 30.974 32.9477 26.6002 40.1546C22.2264 47.3616 24.61 56.6539 31.9133 60.8678C39.282 65.1194 58.1736 62.2736 60.3552 58.4218Z" fill="url(#paint3_linear)"/>
<path fill-rule="evenodd" clip-rule="evenodd" d="M54.1206 48.4862C51.7265 43.7753 48.4589 39.6373 45.7675 38.0845C40.329 34.9466 33.2361 36.7648 29.9793 42.1312C26.7319 47.482 28.5014 54.3808 33.924 57.5095C35.0633 58.1669 36.9788 58.7053 39.5685 58.9523C42.0871 59.1924 44.9267 59.1278 47.6649 58.8217C50.4124 58.5145 52.9153 57.9802 54.7728 57.3517C55.7059 57.036 56.374 56.7306 56.7977 56.4796C56.7985 56.4791 56.7993 56.4787 56.8001 56.4782C56.7896 56.0572 56.7094 55.4389 56.5116 54.622C56.0981 52.9143 55.2734 50.7545 54.1206 48.4862ZM56.7833 56.8613C56.7833 56.8612 56.7836 56.8595 56.7843 56.8562C56.7837 56.8596 56.7833 56.8613 56.7833 56.8613ZM47.7782 34.7262C55.147 38.9778 62.5369 54.5699 60.3552 58.4218C58.1736 62.2736 39.282 65.1194 31.9133 60.8678C24.61 56.6539 22.2264 47.3616 26.6002 40.1546C30.974 32.9477 40.4749 30.5124 47.7782 34.7262Z" fill="#2D3433"/>
<path d="M55.7394 59.4638C60.1775 63.9572 82.0545 60.2081 90.2065 52.8518C98.2861 45.5608 98.8982 33.2135 91.571 25.3288C84.2437 17.4442 71.7082 16.9612 63.6286 24.2521C55.4767 31.6084 51.3013 54.9703 55.7394 59.4638Z" fill="url(#paint4_linear)"/>
<path d="M55.7394 59.4638C60.1775 63.9572 82.0545 60.2081 90.2065 52.8518C98.2861 45.5608 98.8982 33.2135 91.571 25.3288C84.2437 17.4442 71.7082 16.9612 63.6286 24.2521C55.4767 31.6084 51.3013 54.9703 55.7394 59.4638Z" fill="url(#paint5_linear)"/>
<path fill-rule="evenodd" clip-rule="evenodd" d="M70.8861 56.7809C77.6609 55.535 84.2954 52.9371 87.5567 49.994C94.0287 44.1538 94.5103 34.2673 88.6547 27.9663C82.7969 21.6628 72.7529 21.2674 66.2784 27.1099C64.8205 28.4255 63.3035 30.707 61.9402 33.766C60.6029 36.7666 59.5331 40.2443 58.8261 43.6768C58.1167 47.1212 57.8018 50.3775 57.8934 52.9337C57.9393 54.2139 58.0839 55.2142 58.2783 55.9289C58.416 56.4352 58.5441 56.6708 58.5866 56.7436C58.6588 56.7893 58.8769 56.9145 59.3394 57.0539C59.9942 57.2513 60.9183 57.4103 62.1166 57.4811C64.5123 57.6225 67.5835 57.3882 70.8861 56.7809ZM90.2065 52.8518C82.0545 60.2081 60.1775 63.9572 55.7394 59.4638C51.3013 54.9703 55.4767 31.6084 63.6286 24.2521C71.7082 16.9612 84.2437 17.4442 91.571 25.3288C98.8982 33.2135 98.2861 45.5608 90.2065 52.8518Z" fill="#2D3433"/>
<path d="M79.1191 11.2688C85.3247 12.6974 90.9668 15.8336 95.3844 20.3101C99.802 24.7866 102.812 30.4178 104.062 36.5443C104.062 36.5443 104.301 37.9976 103.111 38.3209C101.922 38.6443 101.356 37.1023 101.356 37.1023C100.208 31.4787 97.4452 26.3096 93.3902 22.2006C89.3352 18.0915 84.1562 15.2127 78.4599 13.9014C78.4599 13.9014 76.8803 13.5368 77.2631 12.1899C77.6458 10.8431 79.1191 11.2688 79.1191 11.2688Z" fill="#2D3433"/>
<path d="M80.3359 5.51078C87.6982 7.20566 94.3921 10.9265 99.6331 16.2374C104.874 21.5483 108.445 28.2293 109.929 35.4978C109.929 35.4978 110.212 37.2219 108.8 37.6056C107.389 37.9893 106.718 36.1598 106.718 36.1598C105.356 29.488 102.078 23.3553 97.2672 18.4803C92.4563 13.6053 86.3119 10.1898 79.5538 8.63404C79.5538 8.63404 77.6798 8.2015 78.1339 6.6036C78.588 5.0057 80.3359 5.51078 80.3359 5.51078Z" fill="#2D3433"/>
<path d="M18.4294 54.3328C17.7821 49.3383 18.6029 44.2509 20.7958 39.6664C22.9887 35.082 26.4629 31.1904 30.8113 28.4475C30.8113 28.4475 31.859 27.8394 32.4413 28.6193C33.0235 29.3992 31.9996 30.2744 31.9996 30.2744C28.0081 32.7921 24.8191 36.3643 22.8062 40.5725C20.7933 44.7807 20.0398 49.4506 20.634 54.0351C20.634 54.0351 20.798 55.3066 19.6574 55.4254C18.5167 55.5442 18.4294 54.3328 18.4294 54.3328Z" fill="#2D3433"/>
<path d="M13.6707 55.1494C12.9026 49.224 13.8765 43.1882 16.4782 37.7492C19.0799 32.3101 23.2016 27.6931 28.3606 24.439C28.3606 24.439 29.6036 23.7175 30.2944 24.6428C30.9852 25.568 29.7704 26.6064 29.7704 26.6064C25.0349 29.5934 21.2514 33.8315 18.8633 38.8241C16.4751 43.8168 15.5812 49.3572 16.2862 54.7963C16.2862 54.7963 16.4808 56.3048 15.1275 56.4458C13.7742 56.5867 13.6707 55.1494 13.6707 55.1494Z" fill="#2D3433"/>
<path d="M7.81961 56.8204C6.88644 49.6209 8.0697 42.2873 11.2308 35.6788C14.3919 29.0703 19.3998 23.4606 25.668 19.5068C25.668 19.5068 27.1783 18.6302 28.0177 19.7544C28.857 20.8786 27.381 22.1402 27.381 22.1402C21.6273 25.7695 17.0303 30.9188 14.1287 36.9849C11.2271 43.051 10.1409 49.7827 10.9975 56.3913C10.9975 56.3913 11.234 58.2242 9.5897 58.3955C7.94543 58.5667 7.81961 56.8204 7.81961 56.8204Z" fill="#2D3433"/>
<defs>
<linearGradient id="paint0_linear" x1="44.5655" y1="59.817" x2="84.3379" y2="114.762" gradientUnits="userSpaceOnUse">
<stop stop-color="#FFD000"/>
<stop offset="0.0666667" stop-color="#FFD000"/>
<stop offset="0.133333" stop-color="#FECF00"/>
<stop offset="0.2" stop-color="#FDCD00"/>
<stop offset="0.266667" stop-color="#FCCA00"/>
<stop offset="0.333333" stop-color="#FAC700"/>
<stop offset="0.4" stop-color="#F8C300"/>
<stop offset="0.466667" stop-color="#F6BF00"/>
<stop offset="0.533333" stop-color="#F4BA00"/>
<stop offset="0.6" stop-color="#F1B600"/>
<stop offset="0.666667" stop-color="#EFB200"/>
<stop offset="0.733333" stop-color="#EEAF00"/>
<stop offset="0.8" stop-color="#ECAC00"/>
<stop offset="0.866667" stop-color="#EBAA00"/>
<stop offset="0.933333" stop-color="#EBA900"/>
<stop offset="1" stop-color="#EBA900"/>
</linearGradient>
<linearGradient id="paint1_linear" x1="60.0589" y1="86.1981" x2="32.3509" y2="50.162" gradientUnits="userSpaceOnUse">
<stop stop-color="#FFD000"/>
<stop offset="0.0666667" stop-color="#FFD000"/>
<stop offset="0.133333" stop-color="#FECF00"/>
<stop offset="0.2" stop-color="#FDCD00"/>
<stop offset="0.266667" stop-color="#FCCA00"/>
<stop offset="0.333333" stop-color="#FAC700"/>
<stop offset="0.4" stop-color="#F8C300"/>
<stop offset="0.466667" stop-color="#F6BF00"/>
<stop offset="0.533333" stop-color="#F4BA00"/>
<stop offset="0.6" stop-color="#F1B600"/>
<stop offset="0.666667" stop-color="#EFB200"/>
<stop offset="0.733333" stop-color="#EEAF00"/>
<stop offset="0.8" stop-color="#ECAC00"/>
<stop offset="0.866667" stop-color="#EBAA00"/>
<stop offset="0.933333" stop-color="#EBA900"/>
<stop offset="1" stop-color="#EBA900"/>
</linearGradient>
<linearGradient id="paint2_linear" x1="55.6092" y1="47.5483" x2="26.0049" y2="56.8117" gradientUnits="userSpaceOnUse">
<stop stop-color="#FFD000"/>
<stop offset="0.0666667" stop-color="#FFD000"/>
<stop offset="0.133333" stop-color="#FECF00"/>
<stop offset="0.2" stop-color="#FDCD00"/>
<stop offset="0.266667" stop-color="#FCCA00"/>
<stop offset="0.333333" stop-color="#FAC700"/>
<stop offset="0.4" stop-color="#F8C300"/>
<stop offset="0.466667" stop-color="#F6BF00"/>
<stop offset="0.533333" stop-color="#F4BA00"/>
<stop offset="0.6" stop-color="#F1B600"/>
<stop offset="0.666667" stop-color="#EFB200"/>
<stop offset="0.733333" stop-color="#EEAF00"/>
<stop offset="0.8" stop-color="#ECAC00"/>
<stop offset="0.866667" stop-color="#EBAA00"/>
<stop offset="0.933333" stop-color="#EBA900"/>
<stop offset="1" stop-color="#EBA900"/>
</linearGradient>
<linearGradient id="paint3_linear" x1="63.4787" y1="47.9232" x2="23.0406" y2="52.3642" gradientUnits="userSpaceOnUse">
<stop stop-color="#FFF9E2"/>
<stop offset="1" stop-color="#FFEFB5"/>
</linearGradient>
<linearGradient id="paint4_linear" x1="71.1611" y1="57.6672" x2="70.7024" y2="18.591" gradientUnits="userSpaceOnUse">
<stop stop-color="#FFD000"/>
<stop offset="0.0666667" stop-color="#FFD000"/>
<stop offset="0.133333" stop-color="#FECF00"/>
<stop offset="0.2" stop-color="#FDCD00"/>
<stop offset="0.266667" stop-color="#FCCA00"/>
<stop offset="0.333333" stop-color="#FAC700"/>
<stop offset="0.4" stop-color="#F8C300"/>
<stop offset="0.466667" stop-color="#F6BF00"/>
<stop offset="0.533333" stop-color="#F4BA00"/>
<stop offset="0.6" stop-color="#F1B600"/>
<stop offset="0.666667" stop-color="#EFB200"/>
<stop offset="0.733333" stop-color="#EEAF00"/>
<stop offset="0.8" stop-color="#ECAC00"/>
<stop offset="0.866667" stop-color="#EBAA00"/>
<stop offset="0.933333" stop-color="#EBA900"/>
<stop offset="1" stop-color="#EBA900"/>
</linearGradient>
<linearGradient id="paint5_linear" x1="67.6633" y1="67.0295" x2="76.6282" y2="16.4325" gradientUnits="userSpaceOnUse">
<stop stop-color="#FFF9E2"/>
<stop offset="1" stop-color="#FFEFB5"/>
</linearGradient>
</defs>
</svg>
