<svg width="138" height="40" viewBox="0 0 138 40" fill="none" xmlns="http://www.w3.org/2000/svg">
<path d="M20.326 20.0209C20.326 23.3997 19.3741 26.0524 17.4703 27.9791C15.5945 29.8778 13.0187 30.8272 9.74306 30.8272C8.73516 30.8272 7.67126 30.6038 6.55137 30.1571V40H0V10.0942H3.31768L4.45157 11.3508C6.2154 10.0663 8.06322 9.42408 9.99504 9.42408C13.1587 9.42408 15.6645 10.3456 17.5123 12.1885C19.3881 14.0314 20.326 16.6422 20.326 20.0209ZM13.5647 20.0628C13.5647 18.3874 13.1867 17.075 12.4308 16.1257C11.6749 15.1763 10.625 14.7016 9.28111 14.7016C8.41319 14.7016 7.50328 15.0227 6.55137 15.6649V24.712C7.53127 25.2984 8.49718 25.5916 9.44909 25.5916C10.681 25.5916 11.6749 25.089 12.4308 24.0838C13.1867 23.0506 13.5647 21.7103 13.5647 20.0628Z" fill="url(#paint0_linear)"/>
<path d="M28.7433 3.64398C28.7433 4.62129 28.3793 5.47295 27.6514 6.19895C26.9514 6.89703 26.0975 7.24607 25.0896 7.24607C24.1097 7.24607 23.2558 6.89703 22.5279 6.19895C21.8279 5.47295 21.478 4.62129 21.478 3.64398C21.478 2.63874 21.8279 1.78708 22.5279 1.089C23.2558 0.363001 24.1097 0 25.0896 0C26.0975 0 26.9514 0.363001 27.6514 1.089C28.3793 1.78708 28.7433 2.63874 28.7433 3.64398ZM28.4073 10.0524V30.3665H21.8139V10.0524H28.4073Z" fill="url(#paint1_linear)"/>
<path d="M42.4651 14.7435C41.2892 14.7435 39.6934 15.3298 37.6776 16.5026V30.3665H31.0842V10.0524H35.1578L36.2917 12.1885C37.5236 11.3508 38.8535 10.6806 40.2813 10.178C41.7372 9.64747 43.1091 9.3822 44.3969 9.3822C46.9167 9.3822 48.7365 10.1082 49.8564 11.5602C51.0043 12.9843 51.5782 14.9389 51.5782 17.4241V30.3665H44.9849V17.9267C44.9849 16.9494 44.7749 16.1815 44.3549 15.623C43.935 15.0366 43.305 14.7435 42.4651 14.7435Z" fill="url(#paint2_linear)"/>
<path d="M73.5375 31.1623C73.5375 32.9494 73.0756 34.5131 72.1517 35.8534C71.2558 37.1937 69.9679 38.2129 68.288 38.911C66.6362 39.637 64.7184 40 62.5346 40C61.4147 40 59.9308 39.7906 58.083 39.3717C56.2352 38.9529 54.7653 38.3805 53.6735 37.6544L55.6473 33.0471C57.915 34.164 60.0848 34.7225 62.1566 34.7225C63.5845 34.7225 64.7324 34.3874 65.6003 33.7173C66.4962 33.075 66.9442 32.2094 66.9442 31.1204V29.9895C65.6843 30.548 64.4384 30.8272 63.2065 30.8272C60.0428 30.8272 57.5231 29.9058 55.6473 28.0628C53.7714 26.2199 52.8335 23.6091 52.8335 20.2304C52.8335 16.8517 53.7854 14.2129 55.6893 12.3141C57.5931 10.3874 60.1828 9.42408 63.4585 9.42408C64.4104 9.42408 65.3763 9.61955 66.3562 10.0105C67.3361 10.3735 68.2461 10.904 69.086 11.6021L70.1779 10.0942H73.5375V31.1623ZM66.9442 24.4188V15.7487C65.9363 15.0506 64.8724 14.7016 63.7525 14.7016C62.5206 14.7016 61.5267 15.2042 60.7708 16.2094C60.0148 17.2147 59.6369 18.541 59.6369 20.1885C59.6369 21.8639 60.0148 23.1902 60.7708 24.1675C61.5267 25.1169 62.5766 25.5916 63.9205 25.5916C64.8444 25.5916 65.8523 25.2007 66.9442 24.4188Z" fill="url(#paint3_linear)"/>
<path d="M97.2744 20.0209C97.2744 23.3997 96.3225 26.0524 94.4187 27.9791C92.5429 29.8778 89.9671 30.8272 86.6915 30.8272C84.9276 30.8272 83.1918 30.2269 81.484 29.0262L80.3081 30.3665H76.9484V1.25654L83.4998 0.795811V10.1361C84.5917 9.66143 85.7395 9.42408 86.9434 9.42408C90.1071 9.42408 92.6129 10.3456 94.4607 12.1885C96.3365 14.0314 97.2744 16.6422 97.2744 20.0209ZM90.5131 20.0628C90.5131 18.3874 90.1351 17.075 89.3792 16.1257C88.6233 15.1763 87.5734 14.7016 86.2295 14.7016C85.3616 14.7016 84.4517 15.0227 83.4998 15.6649V24.712C84.4797 25.2984 85.4456 25.5916 86.3975 25.5916C87.6294 25.5916 88.6233 25.089 89.3792 24.0838C90.1351 23.0506 90.5131 21.7103 90.5131 20.0628Z" fill="url(#paint4_linear)"/>
<path d="M108.124 9.42408C110.195 9.42408 111.945 9.89878 113.373 10.8482C114.801 11.7976 115.865 13.0681 116.565 14.6597C117.293 16.2513 117.657 18.0384 117.657 20.0209V21.9895H104.596C105.212 24.363 107.004 25.5497 109.971 25.5497C111.903 25.5497 113.821 25.0192 115.725 23.9581L117.573 28.5236C116.621 29.2216 115.445 29.7801 114.045 30.199C112.673 30.6178 111.161 30.8272 109.509 30.8272C105.786 30.8272 102.846 29.8918 100.69 28.0209C98.5624 26.1501 97.4985 23.5532 97.4985 20.2304C97.4985 18.0524 97.9465 16.1536 98.8424 14.534C99.7383 12.8866 100.984 11.63 102.58 10.7644C104.204 9.87086 106.052 9.42408 108.124 9.42408ZM107.956 14.8272C107.032 14.8272 106.248 15.1483 105.604 15.7906C104.988 16.4049 104.624 17.2286 104.512 18.2618H111.399C111.231 17.2286 110.853 16.4049 110.265 15.7906C109.705 15.1483 108.935 14.8272 107.956 14.8272Z" fill="url(#paint5_linear)"/>
<path d="M128.467 9.42408C130.539 9.42408 132.289 9.89878 133.716 10.8482C135.144 11.7976 136.208 13.0681 136.908 14.6597C137.636 16.2513 138 18.0384 138 20.0209V21.9895H124.939C125.555 24.363 127.347 25.5497 130.315 25.5497C132.247 25.5497 134.164 25.0192 136.068 23.9581L137.916 28.5236C136.964 29.2216 135.788 29.7801 134.388 30.199C133.016 30.6178 131.505 30.8272 129.853 30.8272C126.129 30.8272 123.189 29.8918 121.034 28.0209C118.906 26.1501 117.842 23.5532 117.842 20.2304C117.842 18.0524 118.29 16.1536 119.186 14.534C120.082 12.8866 121.328 11.63 122.923 10.7644C124.547 9.87086 126.395 9.42408 128.467 9.42408ZM128.299 14.8272C127.375 14.8272 126.591 15.1483 125.947 15.7906C125.331 16.4049 124.967 17.2286 124.855 18.2618H131.743C131.575 17.2286 131.197 16.4049 130.609 15.7906C130.049 15.1483 129.279 14.8272 128.299 14.8272Z" fill="url(#paint6_linear)"/>
<defs>
<linearGradient id="paint0_linear" x1="69" y1="0" x2="69" y2="40" gradientUnits="userSpaceOnUse">
<stop stop-color="#4C5756"/>
<stop offset="1" stop-color="#2D3433"/>
</linearGradient>
<linearGradient id="paint1_linear" x1="69" y1="0" x2="69" y2="40" gradientUnits="userSpaceOnUse">
<stop stop-color="#4C5756"/>
<stop offset="1" stop-color="#2D3433"/>
</linearGradient>
<linearGradient id="paint2_linear" x1="69" y1="0" x2="69" y2="40" gradientUnits="userSpaceOnUse">
<stop stop-color="#4C5756"/>
<stop offset="1" stop-color="#2D3433"/>
</linearGradient>
<linearGradient id="paint3_linear" x1="69" y1="0" x2="69" y2="40" gradientUnits="userSpaceOnUse">
<stop stop-color="#4C5756"/>
<stop offset="1" stop-color="#2D3433"/>
</linearGradient>
<linearGradient id="paint4_linear" x1="69" y1="0" x2="69" y2="40" gradientUnits="userSpaceOnUse">
<stop stop-color="#4C5756"/>
<stop offset="1" stop-color="#2D3433"/>
</linearGradient>
<linearGradient id="paint5_linear" x1="69" y1="0" x2="69" y2="40" gradientUnits="userSpaceOnUse">
<stop stop-color="#4C5756"/>
<stop offset="1" stop-color="#2D3433"/>
</linearGradient>
<linearGradient id="paint6_linear" x1="69" y1="0" x2="69" y2="40" gradientUnits="userSpaceOnUse">
<stop stop-color="#4C5756"/>
<stop offset="1" stop-color="#2D3433"/>
</linearGradient>
</defs>
</svg>
