<svg width="32" height="32" viewBox="0 0 32 32" fill="none" xmlns="http://www.w3.org/2000/svg">
<path d="M32 16C32 27.8366 27.8366 32 16 32C4.16344 32 0 27.8366 0 16C0 4.16344 4.16344 0 16 0C27.8366 0 32 4.16344 32 16Z" fill="url(#paint0_linear)"/>
<path fill-rule="evenodd" clip-rule="evenodd" d="M12.0976 19.5456C12.3542 19.2969 12.7582 19.3092 12.9999 19.5732C13.3771 19.985 14.3586 20.9876 15.2153 21.8563C15.5632 22.209 15.7793 22.4262 15.9568 22.5633C16.1164 22.6866 16.1723 22.6865 16.1903 22.6865H16.1919C16.2099 22.6865 16.2658 22.6866 16.4254 22.5633C16.6029 22.4262 16.819 22.209 17.1669 21.8563C18.0234 20.9879 19.0045 19.9857 19.3816 19.574C19.6233 19.31 20.0273 19.2977 20.2839 19.5464C20.5404 19.7951 20.5524 20.2108 20.3107 20.4748C19.9134 20.9085 18.9119 21.9311 18.0629 22.7918C18.0535 22.8014 18.0441 22.811 18.0347 22.8205C17.7239 23.1356 17.4466 23.4169 17.192 23.6136C16.9142 23.8282 16.5925 24 16.1911 24C15.7897 24 15.468 23.8282 15.1902 23.6136C14.9356 23.4169 14.6583 23.1356 14.3475 22.8205C14.3381 22.811 14.3287 22.8014 14.3193 22.7918C13.4701 21.9308 12.4681 20.9079 12.0708 20.474C11.8291 20.21 11.8411 19.7944 12.0976 19.5456Z" fill="url(#paint1_linear)"/>
<path d="M18.7924 9.49009C19.3161 9.31306 19.8721 9.26895 20.4149 9.36117C20.9578 9.4534 21.4727 9.67949 21.9173 10.0217C22.3618 10.364 22.7234 10.8127 22.9713 11.3317C23.2256 11.8654 23.3522 12.4566 23.3394 13.054C23.3266 13.6516 23.1747 14.2363 22.8977 14.7574C22.7285 15.0757 22.842 15.4751 23.1513 15.6493C23.4606 15.8235 23.8485 15.7066 24.0178 15.3883C24.3934 14.6816 24.5985 13.8903 24.6158 13.083C24.6331 12.2757 24.462 11.4753 24.1171 10.7519C23.7809 10.0481 23.2893 9.43683 22.6819 8.96924C22.0745 8.50161 21.3688 8.1912 20.6229 8.06447C19.8769 7.93773 19.1129 7.99845 18.3941 8.24144C17.6753 8.48442 17.0229 8.90245 16.4904 9.46006L16.0802 9.88955C15.993 9.98093 15.9242 10.0529 15.8637 10.1131C15.859 10.1178 15.8544 10.1224 15.8499 10.1268C15.8454 10.1312 15.7857 10.147 15.7774 10.1389C15.7691 10.1309 15.7604 10.1223 15.7512 10.1132C15.6906 10.0531 15.6217 9.98124 15.5343 9.89L15.1257 9.46344C14.5932 8.90602 13.941 8.48816 13.2224 8.24525C13.0606 8.19055 12.8965 8.14509 12.7308 8.10892C12.1605 7.98442 11.5717 7.97006 10.9936 8.06827C10.2477 8.195 9.54196 8.50541 8.93452 8.97304C8.32714 9.44063 7.83556 10.0519 7.4994 10.7557C7.15446 11.4793 6.9835 12.28 7.00125 13.0875C7.019 13.8949 7.22473 14.6862 7.6012 15.3927C7.77077 15.7108 8.15882 15.8273 8.46794 15.6527C8.77706 15.4782 8.89018 15.0788 8.72061 14.7606C8.44309 14.2398 8.29084 13.6553 8.2777 13.0577C8.26457 12.4603 8.39102 11.8688 8.64541 11.3351C8.89329 10.8163 9.25477 10.3677 9.69921 10.0255C10.1437 9.6833 10.6587 9.4572 11.2015 9.36497C11.7443 9.27275 12.3004 9.31686 12.824 9.49389C13.3478 9.67093 13.8256 9.97681 14.2163 10.3859L14.6252 10.8128L14.6478 10.8364C14.7994 10.9947 14.9547 11.1569 15.102 11.274C15.2712 11.4087 15.5035 11.5455 15.8086 11.5453C16.1137 11.545 16.3457 11.4078 16.5148 11.2729C16.6618 11.1555 16.8169 10.993 16.9682 10.8345L16.9908 10.8109L17.4009 10.3814C17.6546 10.1157 17.9448 9.89387 18.2605 9.7225C18.4309 9.62997 18.6088 9.55216 18.7924 9.49009Z" fill="url(#paint2_linear)"/>
<path fill-rule="evenodd" clip-rule="evenodd" d="M14.7391 15.4236C14.7322 15.4255 14.7245 15.4279 14.7159 15.4307C14.5555 15.4842 14.3625 15.6507 14.163 15.9818C13.9708 16.301 13.8216 16.6924 13.714 17.0476C13.7115 17.0559 13.709 17.0642 13.7065 17.0725C13.6476 17.2669 13.5906 17.4553 13.5291 17.6057C13.4644 17.764 13.3596 17.9734 13.1559 18.1293C12.9606 18.2789 12.7499 18.3257 12.5833 18.3456C12.4335 18.3635 12.2553 18.3653 12.0793 18.3672C12.0709 18.3672 12.0625 18.3673 12.054 18.3674C10.8766 18.3799 8.79885 18.4007 8.02128 18.4007C7.66875 18.4007 7.38298 18.1066 7.38298 17.7439C7.38298 17.3812 7.66875 17.0872 8.02128 17.0872C8.79056 17.0872 10.86 17.0665 12.0409 17.054C12.1418 17.0529 12.2215 17.0521 12.2902 17.0499C12.322 17.0489 12.3488 17.0477 12.3716 17.0463C12.402 16.9631 12.4383 16.8446 12.4952 16.6569C12.6185 16.2496 12.8059 15.7414 13.0779 15.2899C13.3427 14.8503 13.7415 14.3749 14.3223 14.1812C14.6684 14.0658 15.0457 14.0594 15.3843 14.2667C15.6993 14.4596 15.8694 14.7717 15.9674 15.0394C16.1576 15.5592 16.1971 16.2635 16.2197 16.8579C16.2247 16.9893 16.2288 17.1174 16.2329 17.2418C16.2491 17.7353 16.2633 18.1695 16.3183 18.5168C16.3241 18.5531 16.33 18.5864 16.336 18.6168C16.4011 18.4344 16.4534 18.181 16.5096 17.853C16.5178 17.8054 16.5261 17.7558 16.5346 17.7047C16.5897 17.375 16.6553 16.983 16.7619 16.6659C16.8742 16.332 17.1417 15.7522 17.793 15.6889C18.0552 15.6635 18.2737 15.7568 18.428 15.8606C18.5786 15.9618 18.6981 16.0921 18.7888 16.2081C18.9691 16.4387 19.1185 16.7221 19.2262 16.9371C19.2562 16.9972 19.278 17.0406 19.2974 17.0772L19.3 17.0821C19.3031 17.0822 19.3063 17.0823 19.3096 17.0824C19.3513 17.0834 19.4 17.0834 19.4669 17.0834H24.3617C24.7142 17.0834 25 17.3774 25 17.7401C25 18.1028 24.7142 18.3969 24.3617 18.3969H19.4669C19.4506 18.3969 19.4333 18.397 19.4151 18.3972C19.2131 18.3988 18.9058 18.4012 18.6234 18.224C18.3412 18.047 18.2041 17.7679 18.1141 17.5848C18.1062 17.5686 18.0986 17.5531 18.0913 17.5386C18.0351 17.4264 17.9805 17.323 17.9277 17.2329C17.8791 17.4182 17.8408 17.6442 17.7948 17.9165C17.7858 17.9696 17.7765 18.0245 17.7668 18.0812C17.7025 18.456 17.6156 18.9332 17.4337 19.3128C17.3387 19.5109 17.1982 19.7263 16.9824 19.8879C16.7536 20.0592 16.4808 20.1394 16.1863 20.1218C15.7647 20.0966 15.4823 19.8358 15.3204 19.556C15.1733 19.3017 15.1012 18.9981 15.0584 18.7283C14.9887 18.2887 14.9712 17.7416 14.9553 17.2416C14.9517 17.1278 14.9481 17.0164 14.944 16.9092C14.9198 16.2728 14.8774 15.7884 14.7727 15.5022C14.7599 15.4674 14.7484 15.4419 14.7391 15.4236Z" fill="url(#paint3_linear)"/>
<defs>
<linearGradient id="paint0_linear" x1="16" y1="8.22835e-08" x2="19.0495" y2="66.1928" gradientUnits="userSpaceOnUse">
<stop stop-color="#FFD000"/>
<stop offset="0.0666667" stop-color="#FFD000"/>
<stop offset="0.133333" stop-color="#FECF00"/>
<stop offset="0.2" stop-color="#FDCD00"/>
<stop offset="0.266667" stop-color="#FCCA00"/>
<stop offset="0.333333" stop-color="#FAC700"/>
<stop offset="0.4" stop-color="#F8C300"/>
<stop offset="0.466667" stop-color="#F6BF00"/>
<stop offset="0.533333" stop-color="#F4BA00"/>
<stop offset="0.6" stop-color="#F1B600"/>
<stop offset="0.666667" stop-color="#EFB200"/>
<stop offset="0.733333" stop-color="#EEAF00"/>
<stop offset="0.8" stop-color="#ECAC00"/>
<stop offset="0.866667" stop-color="#EBAA00"/>
<stop offset="0.933333" stop-color="#EBA900"/>
<stop offset="1" stop-color="#EBA900"/>
</linearGradient>
<linearGradient id="paint1_linear" x1="16" y1="8" x2="16" y2="24" gradientUnits="userSpaceOnUse">
<stop stop-color="white"/>
<stop offset="1" stop-color="#F0F0F0"/>
</linearGradient>
<linearGradient id="paint2_linear" x1="16" y1="8" x2="16" y2="24" gradientUnits="userSpaceOnUse">
<stop stop-color="white"/>
<stop offset="1" stop-color="#F0F0F0"/>
</linearGradient>
<linearGradient id="paint3_linear" x1="16" y1="8" x2="16" y2="24" gradientUnits="userSpaceOnUse">
<stop stop-color="white"/>
<stop offset="1" stop-color="#F0F0F0"/>
</linearGradient>
</defs>
</svg>
