<svg width="32" height="32" viewBox="0 0 32 32" fill="none" xmlns="http://www.w3.org/2000/svg">
<path d="M32 16C32 27.8366 27.8366 32 16 32C4.16344 32 0 27.8366 0 16C0 4.16344 4.16344 0 16 0C27.8366 0 32 4.16344 32 16Z" fill="url(#paint0_linear)"/>
<path fill-rule="evenodd" clip-rule="evenodd" d="M16 8.30435C15.0831 8.30435 14.1767 8.52769 12.1506 9.03741L12.0649 9.05897C11.3086 9.24923 10.7983 9.37877 10.4179 9.52471C10.0553 9.66383 9.87658 9.79457 9.75307 9.95077C9.62786 10.1091 9.53838 10.3193 9.48048 10.7144C9.42013 11.1262 9.40313 11.6632 9.3796 12.4533C9.34299 13.6831 9.31148 14.9425 9.31148 15.6263C9.31149 17.3334 9.82227 18.9993 10.775 20.4046C11.0508 20.8113 11.6259 21.3035 12.3735 21.8137C13.1027 22.3114 13.9293 22.782 14.6393 23.1585C15.4532 23.5901 15.6848 23.6957 16 23.6957C16.3152 23.6957 16.5468 23.5901 17.3607 23.1585C18.0707 22.782 18.8973 22.3114 19.6265 21.8137C20.3741 21.3035 20.9492 20.8113 21.225 20.4046C22.1777 18.9993 22.6885 17.3334 22.6885 15.6263C22.6885 14.9425 22.657 13.6831 22.6204 12.4533C22.5969 11.6632 22.5799 11.1262 22.5195 10.7144C22.4616 10.3193 22.3721 10.1091 22.2469 9.95077C22.1234 9.79457 21.9447 9.66383 21.5821 9.52471C21.2017 9.37877 20.6914 9.24923 19.9351 9.05897L19.8494 9.03741C17.8233 8.52769 16.9169 8.30435 16 8.30435ZM11.9245 7.74887C13.8291 7.26963 14.9006 7 16 7C17.0994 7 18.1709 7.26963 20.0755 7.74887L20.2952 7.80412C21.0032 7.98223 21.591 8.13011 22.0541 8.30778C22.5433 8.49547 22.9571 8.73882 23.2778 9.14445C23.5969 9.54794 23.7411 10.0061 23.8173 10.5263C23.8899 11.0214 23.9081 11.6342 23.9302 12.3766L23.9313 12.4147C23.9678 13.6409 24 14.9198 24 15.6263C24 17.5916 23.4121 19.5118 22.3123 21.1338C21.8891 21.758 21.1354 22.3659 20.3685 22.8892C19.5832 23.4251 18.7096 23.9214 17.9778 24.3095C17.9467 24.326 17.916 24.3423 17.8856 24.3584C17.202 24.7216 16.678 25 16 25C15.322 25 14.7981 24.7216 14.1145 24.3584C14.0841 24.3423 14.0534 24.326 14.0223 24.3095C13.2904 23.9214 12.4168 23.4251 11.6315 22.8892C10.8647 22.3659 10.1109 21.758 9.6877 21.1338C8.58794 19.5118 8.00002 17.5916 8 15.6263C8 14.9198 8.03219 13.6409 8.0687 12.4147L8.06983 12.3766C8.09192 11.6342 8.11015 11.0214 8.18271 10.5263C8.25895 10.0061 8.40313 9.54794 8.7222 9.14445C9.04295 8.73882 9.45671 8.49547 9.94591 8.30778C10.409 8.13011 10.9968 7.98223 11.7048 7.80412L11.829 7.77289C11.8611 7.76482 11.8929 7.75682 11.9245 7.74887ZM16.6557 11.6869C16.656 12.0471 16.3626 12.3393 16.0005 12.3395C15.3709 12.34 14.7537 12.5237 14.2224 12.8699C13.691 13.2163 13.2673 13.7112 13.0034 14.2971C12.7395 14.883 12.6472 15.5342 12.738 16.1726C12.8288 16.8111 13.0986 17.4083 13.5138 17.8936C13.929 18.3788 14.4717 18.7314 15.0764 18.9113C15.6811 19.0912 16.3237 19.0913 16.9285 18.9116C17.5333 18.7319 18.076 18.3794 18.4913 17.8944C18.9067 17.4092 19.1767 16.812 19.2677 16.1736C19.3185 15.817 19.6504 15.5689 20.009 15.6194C20.3675 15.67 20.617 16 20.5662 16.3567C20.4406 17.2378 20.0676 18.0652 19.4898 18.74C18.912 19.4149 18.1536 19.9089 17.3039 20.1614C16.4541 20.4139 15.5503 20.4137 14.7006 20.161C13.851 19.9082 13.0927 19.414 12.5151 18.7389C11.9375 18.064 11.5647 17.2365 11.4394 16.3553C11.3141 15.4741 11.4413 14.5748 11.8065 13.7638C12.1718 12.9528 12.7603 12.2634 13.5036 11.779C14.247 11.2945 15.1133 11.0358 15.9995 11.0352C16.3617 11.0349 16.6555 11.3267 16.6557 11.6869ZM20.4141 12.2231C20.6725 12.4754 20.6763 12.8883 20.4225 13.1453C19.8669 13.7081 18.0925 15.4 17.12 16.3246C17.1127 16.3315 17.1055 16.3384 17.0982 16.3453C16.9583 16.4784 16.8116 16.6179 16.6722 16.7198C16.5098 16.8385 16.2916 16.9569 16.0074 16.9641C15.7244 16.9712 15.5012 16.8653 15.3327 16.7548C15.1888 16.6606 15.0365 16.5293 14.892 16.4049C14.8844 16.3984 14.8768 16.3918 14.8692 16.3853C14.5723 16.1298 14.2319 15.8307 14.052 15.6479C13.7987 15.3904 13.8032 14.9775 14.062 14.7256C14.3208 14.4737 14.736 14.4781 14.9893 14.7355C15.1241 14.8726 15.4213 15.1355 15.7274 15.399C15.8115 15.4714 15.8768 15.5275 15.934 15.5743C15.9482 15.5859 15.9611 15.5963 15.9729 15.6056C15.9852 15.5949 15.9987 15.5829 16.0136 15.5695C16.0692 15.5192 16.1325 15.459 16.2137 15.3817C17.1956 14.4482 18.9498 12.7754 19.4867 12.2315C19.7405 11.9745 20.1557 11.9707 20.4141 12.2231Z" fill="url(#paint1_linear)"/>
<defs>
<linearGradient id="paint0_linear" x1="16" y1="8.22835e-08" x2="19.0495" y2="66.1928" gradientUnits="userSpaceOnUse">
<stop stop-color="#FFD000"/>
<stop offset="0.0666667" stop-color="#FFD000"/>
<stop offset="0.133333" stop-color="#FECF00"/>
<stop offset="0.2" stop-color="#FDCD00"/>
<stop offset="0.266667" stop-color="#FCCA00"/>
<stop offset="0.333333" stop-color="#FAC700"/>
<stop offset="0.4" stop-color="#F8C300"/>
<stop offset="0.466667" stop-color="#F6BF00"/>
<stop offset="0.533333" stop-color="#F4BA00"/>
<stop offset="0.6" stop-color="#F1B600"/>
<stop offset="0.666667" stop-color="#EFB200"/>
<stop offset="0.733333" stop-color="#EEAF00"/>
<stop offset="0.8" stop-color="#ECAC00"/>
<stop offset="0.866667" stop-color="#EBAA00"/>
<stop offset="0.933333" stop-color="#EBA900"/>
<stop offset="1" stop-color="#EBA900"/>
</linearGradient>
<linearGradient id="paint1_linear" x1="16" y1="7.65217" x2="16" y2="24.3478" gradientUnits="userSpaceOnUse">
<stop stop-color="white"/>
<stop offset="1" stop-color="#F0F0F0"/>
</linearGradient>
</defs>
</svg>
