<svg width="32" height="32" viewBox="0 0 32 32" fill="none" xmlns="http://www.w3.org/2000/svg">
<path d="M32 16C32 27.8366 27.8366 32 16 32C4.16344 32 0 27.8366 0 16C0 4.16344 4.16344 0 16 0C27.8366 0 32 4.16344 32 16Z" fill="url(#paint0_linear)"/>
<path d="M19.8956 8.66953C20.2233 8.66953 20.4946 8.91124 20.5408 9.2261H21.0086C21.3687 9.2261 21.6607 9.51809 21.6607 9.87827C21.6607 10.2385 21.3687 10.5304 21.0086 10.5304H19.5003C19.4206 10.5305 19.3434 10.5583 19.2819 10.6091C19.2204 10.6599 19.1785 10.7305 19.1633 10.8089C19.1482 10.8872 19.1608 10.9683 19.1989 11.0384C19.237 11.1083 19.2982 11.1629 19.372 11.1927L20.904 11.8058C21.2589 11.9486 21.5531 12.2105 21.7361 12.5465C21.9191 12.8825 21.9795 13.2717 21.9069 13.6473C21.8343 14.023 21.6332 14.3617 21.3382 14.6053C21.109 14.7946 20.8341 14.9173 20.5434 14.9628C20.5058 15.2872 20.2301 15.5391 19.8956 15.5391C19.5679 15.5391 19.2967 15.2974 19.2504 14.9826H18.7825C18.4223 14.9826 18.1303 14.6906 18.1303 14.3304C18.1303 13.9702 18.4223 13.6782 18.7825 13.6782H19.8932L19.8956 13.6782L19.8981 13.6782H20.2891C20.3689 13.6782 20.4461 13.6504 20.5077 13.5996C20.5692 13.5488 20.6111 13.4781 20.6262 13.3998C20.6414 13.3215 20.6288 13.2403 20.5906 13.1703C20.5525 13.1003 20.4914 13.0458 20.4175 13.016L18.8856 12.4029C18.5306 12.2601 18.2364 11.9982 18.0534 11.6622C17.8705 11.3262 17.8101 10.937 17.8827 10.5613C17.9553 10.1857 18.1564 9.84701 18.4514 9.60338C18.6809 9.41379 18.9566 9.29096 19.2478 9.24568C19.2855 8.92131 19.5612 8.66953 19.8956 8.66953Z" fill="url(#paint1_linear)"/>
<path fill-rule="evenodd" clip-rule="evenodd" d="M16.2864 8.49502C17.2436 7.53777 18.5419 7 19.8957 7C21.2494 7 22.5477 7.53777 23.505 8.49502C24.4622 9.45226 25 10.7506 25 12.1043C25 13.4581 24.4622 14.7564 23.505 15.7136C22.5477 16.6708 21.2494 17.2086 19.8957 17.2086C18.5419 17.2086 17.2436 16.6708 16.2864 15.7136C15.3292 14.7564 14.7914 13.4581 14.7914 12.1043C14.7914 10.7506 15.3292 9.45226 16.2864 8.49502ZM19.8957 8.30434C18.8879 8.30434 17.9213 8.70469 17.2087 9.41732C16.4961 10.13 16.0957 11.0965 16.0957 12.1043C16.0957 13.1121 16.4961 14.0787 17.2087 14.7913C17.9213 15.5039 18.8879 15.9043 19.8957 15.9043C20.9035 15.9043 21.87 15.5039 22.5827 14.7913C23.2953 14.0787 23.6957 13.1121 23.6957 12.1043C23.6957 11.0965 23.2953 10.13 22.5827 9.41732C21.87 8.70469 20.9035 8.30434 19.8957 8.30434Z" fill="url(#paint2_linear)"/>
<path d="M12.003 14.229C12.1775 14.0545 12.4142 13.9565 12.6609 13.9565C12.845 13.9565 13.0249 14.0111 13.1779 14.1133C13.3309 14.2155 13.4501 14.3608 13.5205 14.5309C13.591 14.7009 13.6094 14.8879 13.5735 15.0684C13.5376 15.2489 13.449 15.4147 13.3189 15.5448C13.1887 15.675 13.0229 15.7636 12.8425 15.7995C12.662 15.8354 12.4749 15.8169 12.3049 15.7465C12.1349 15.6761 11.9896 15.5568 11.8873 15.4038C11.7851 15.2508 11.7305 15.0709 11.7305 14.8869C11.7305 14.6402 11.8285 14.4035 12.003 14.229Z" fill="url(#paint3_linear)"/>
<path d="M22.4743 19.0238C22.4697 19.0431 22.4641 19.0624 22.4577 19.0816C22.048 20.2954 21.3018 21.3678 20.3059 22.1737L20.3043 22.175C20.2282 22.2393 20.1506 22.3021 20.0717 22.3633L20.5281 24.1895C20.6155 24.539 20.403 24.8931 20.0536 24.9804C19.7041 25.0677 19.3501 24.8552 19.2627 24.5058L18.9113 23.0995C17.8421 23.6434 16.6498 23.9165 15.4402 23.887C14.2371 23.9044 13.0493 23.6289 11.9788 23.086L11.6241 24.5058C11.5368 24.8552 11.1827 25.0677 10.8333 24.9804C10.4839 24.8931 10.2714 24.5391 10.3587 24.1896L10.8172 22.3544C10.2344 21.907 9.72064 21.3749 9.29346 20.7753C9.21481 20.6649 9.16597 20.5969 9.12921 20.5499C9.1148 20.5493 9.09797 20.5489 9.0782 20.5486C9.0301 20.5478 8.97432 20.5477 8.90229 20.5477L8.66312 20.5477C8.44576 20.5478 8.22258 20.5479 8.03627 20.5228C7.82187 20.494 7.56162 20.4217 7.34384 20.2039C7.12606 19.9861 7.05375 19.7259 7.02493 19.5115C6.99988 19.3252 6.99994 19.102 7.00001 18.8846L7.00001 16.221C6.99999 16.1085 6.99998 15.9927 7.00706 15.8931C7.01494 15.7825 7.03392 15.6431 7.09729 15.4973C7.21579 15.2246 7.43335 15.007 7.70602 14.8885C7.85183 14.8252 7.99124 14.8062 8.1019 14.7983C8.20144 14.7912 8.31723 14.7912 8.42971 14.7913L8.44626 14.7913C8.49452 14.7913 8.53238 14.7912 8.56513 14.7909C8.58113 14.7551 8.60129 14.7083 8.62891 14.6441C9.02678 13.719 9.62696 12.8939 10.3859 12.23C10.4678 12.1583 10.5179 12.1143 10.5529 12.0815C10.5639 12.0371 10.5774 11.9749 10.5991 11.8731C10.6515 11.6279 10.7201 11.3395 10.7899 11.0577L10.7995 11.0189C10.8667 10.7476 10.9339 10.476 11.0225 10.264C11.1239 10.021 11.3013 9.7356 11.6571 9.59374C12.0121 9.45212 12.3367 9.53631 12.5776 9.64268C12.7875 9.73532 13.0226 9.88571 13.2569 10.0357L13.2906 10.0572C13.6391 10.28 14.0162 10.5298 14.2189 10.6988C14.4956 10.9295 14.5329 11.3407 14.3023 11.6174C14.0717 11.894 13.6604 11.9314 13.3837 11.7007C13.2557 11.594 12.9514 11.3885 12.588 11.1561C12.4537 11.0702 12.3467 11.0019 12.2533 10.9459C12.2261 10.9295 12.2014 10.9151 12.179 10.9023C12.1713 10.9275 12.1632 10.9556 12.1545 10.987C12.1252 11.0924 12.0944 11.2162 12.0559 11.3715C11.9875 11.6475 11.9228 11.9203 11.8747 12.1455L11.872 12.1582C11.8505 12.2586 11.8297 12.3561 11.8082 12.4369C11.786 12.5204 11.7513 12.6341 11.685 12.747C11.618 12.861 11.534 12.9476 11.4718 13.0076C11.4107 13.0665 11.3342 13.1334 11.2544 13.2032L11.2447 13.2117C10.6324 13.7473 10.1481 14.4131 9.82712 15.1595L9.82226 15.1708C9.78355 15.2608 9.74609 15.3479 9.71132 15.4193C9.67549 15.493 9.62267 15.5928 9.54165 15.687C9.39346 15.8594 9.21976 15.9737 9.00287 16.0418C8.82565 16.0974 8.62809 16.0964 8.48815 16.0957L8.44626 16.0956C8.39003 16.0956 8.34443 16.0956 8.30476 16.096C8.30436 16.1357 8.30435 16.1813 8.30435 16.2375V18.8521C8.30435 18.9775 8.30439 19.0761 8.30653 19.1608C8.30727 19.1901 8.30822 19.2158 8.30936 19.2384C8.33197 19.2395 8.35765 19.2405 8.38691 19.2412C8.47161 19.2434 8.57025 19.2434 8.69565 19.2434L8.92143 19.2434C9.04557 19.2434 9.17617 19.2433 9.28914 19.253C9.41796 19.2641 9.57513 19.2908 9.73632 19.3738C9.90505 19.4608 10.0221 19.5833 10.1047 19.682C10.1812 19.7734 10.2628 19.888 10.3445 20.0027L10.3558 20.0185C10.8765 20.7494 11.5533 21.3585 12.3395 21.8003C13.2831 22.3304 14.3506 22.6003 15.4327 22.5826C15.442 22.5824 15.4513 22.5825 15.4606 22.5827C16.6872 22.615 17.8926 22.268 18.9129 21.5909C18.9459 21.5632 18.982 21.5386 19.0207 21.5177C19.0268 21.5134 19.0329 21.5091 19.039 21.5049C20.0854 20.7712 20.8683 19.7207 21.2721 18.5082C21.3859 18.1665 21.7552 17.9817 22.097 18.0955C22.4387 18.2093 22.6234 18.5786 22.5096 18.9204C22.4981 18.955 22.4863 18.9895 22.4743 19.0238Z" fill="url(#paint4_linear)"/>
<defs>
<linearGradient id="paint0_linear" x1="16" y1="8.22835e-08" x2="19.0495" y2="66.1928" gradientUnits="userSpaceOnUse">
<stop stop-color="#FFD000"/>
<stop offset="0.0666667" stop-color="#FFD000"/>
<stop offset="0.133333" stop-color="#FECF00"/>
<stop offset="0.2" stop-color="#FDCD00"/>
<stop offset="0.266667" stop-color="#FCCA00"/>
<stop offset="0.333333" stop-color="#FAC700"/>
<stop offset="0.4" stop-color="#F8C300"/>
<stop offset="0.466667" stop-color="#F6BF00"/>
<stop offset="0.533333" stop-color="#F4BA00"/>
<stop offset="0.6" stop-color="#F1B600"/>
<stop offset="0.666667" stop-color="#EFB200"/>
<stop offset="0.733333" stop-color="#EEAF00"/>
<stop offset="0.8" stop-color="#ECAC00"/>
<stop offset="0.866667" stop-color="#EBAA00"/>
<stop offset="0.933333" stop-color="#EBA900"/>
<stop offset="1" stop-color="#EBA900"/>
</linearGradient>
<linearGradient id="paint1_linear" x1="16" y1="7" x2="16" y2="25" gradientUnits="userSpaceOnUse">
<stop stop-color="white"/>
<stop offset="1" stop-color="#F0F0F0"/>
</linearGradient>
<linearGradient id="paint2_linear" x1="16" y1="7" x2="16" y2="25" gradientUnits="userSpaceOnUse">
<stop stop-color="white"/>
<stop offset="1" stop-color="#F0F0F0"/>
</linearGradient>
<linearGradient id="paint3_linear" x1="16" y1="7" x2="16" y2="25" gradientUnits="userSpaceOnUse">
<stop stop-color="white"/>
<stop offset="1" stop-color="#F0F0F0"/>
</linearGradient>
<linearGradient id="paint4_linear" x1="16" y1="7" x2="16" y2="25" gradientUnits="userSpaceOnUse">
<stop stop-color="white"/>
<stop offset="1" stop-color="#F0F0F0"/>
</linearGradient>
</defs>
</svg>
